<svg xmlns="http://www.w3.org/2000/svg" viewBox="0 0 194.87 198.83"><defs><style>.cls-1{fill-rule:evenodd;}</style></defs><g id="Layer_2" data-name="Layer 2"><g id="New_Layer" data-name="New Layer"><path class="cls-1" d="M86.4,4.2a71.69,71.69,0,0,0-7.6,8.5c-2.8,4.2-3,4.3-8.7,4.3-10.3,0-11.8.7-17.5,7.7-5,6.3-5.2,6.4-9.1,5.9A85.24,85.24,0,0,1,30,26.5l-9.4-3.7-1.9,2.3C17,27.3,16.8,29,17.1,45.4l.4,17.9-4.3,1.5c-5.1,1.7-5.4,3.5-1.4,10.1a67.73,67.73,0,0,1,4.1,7.9c1.3,3.2,1.3,3.4-2,6.9a49.61,49.61,0,0,1-8.6,6.5C2.4,97.8,0,99.8,0,100.5s2.2,3.2,4.9,5.5c6.4,5.4,8.6,11.1,5.9,15.5-2.4,3.9-2.5,18.2-.3,22.9,1.5,3.2,7.8,7.6,10.8,7.6.8,0,2.3,2.3,3.5,5.8,2.7,7.4,6.9,13.2,16.7,23.3,10.2,10.5,16.7,15.6,21.8,17,5.4,1.5,15.7.6,23.4-2,6-2,23-11.2,27.9-15,3.3-2.6,4.1-2.6,4.9-.1,1.1,3.4,3.5,4,10.5,2.5a79.23,79.23,0,0,1,12.3-1.5c5,0,5.9-.3,6.6-2.1a11.54,11.54,0,0,0-.8-6.5l-1.5-4.2,5.1-4.7a36.22,36.22,0,0,0,7.8-10c2.9-5.7,4.8-7.5,10.7-9.4a12.07,12.07,0,0,0,5.2-3.6c.9-1.4,2.2-2.2,3-1.9,2.4.9,5.6-3.2,5.6-7,0-3.5,2-5.6,8.5-9.2,1.3-.7,2.1-2.4,2.3-4.7.3-3.1-.2-3.9-4.3-7.4a61.81,61.81,0,0,1-8.9-9.4c-4.1-5.4-4.3-6.1-4.9-14.5-.9-12.5-4.5-31.1-6.9-36.2-1.3-2.7-4.3-6.1-8.2-9.2-6.6-5.3-36.3-21-39.5-21-1.1,0-5.3-2.8-9.3-6.3C104.4,7.4,94,0,92.2,0,91.5,0,88.9,1.9,86.4,4.2Zm14.6,8a168.49,168.49,0,0,1,16.7,14.2c10.2,9.7,12.5,11.2,8,5.2-4.3-5.6-4-5.7,4.5-1.5,20.3,10.1,33,19.6,34.8,25.8,1.3,4.5,5,25.5,5,28.4,0,1.3-.4,1.7-.9,1.1-1.2-1.3-12.9-24.5-15.7-31.3-3.8-9.2-2.8-2.2,1.5,9.6,7.1,19.9,14.2,32.2,26.2,45.5,4.4,4.7,7.9,9,7.8,9.5s-2.3,2.2-5,4l-5,3.2-1.8-4.2c-1-2.3-2.6-6.3-3.7-8.9s-2.2-4.8-2.6-4.8c-1.1,0-1.3-.7,3.2,13,2.3,6.7,3.9,12.4,3.7,12.6a6.91,6.91,0,0,1-2.6.6c-2.1.3-2.7-.7-6.5-12.1-2.2-6.8-4.6-12.6-5.3-12.8s-.6,1.8.8,6.4c4.6,15.8,6.1,22.5,5.1,23.5-2.1,2.1-4,0-4.7-5.1-.4-2.8-1-5.1-1.5-5.1-.7,0,.3,7,1.5,10.2.4,1.1-.1,2-1.5,2.8-2.9,1.5-3.1,1.1-2.8-4.6.6-14.1-.2-37.1-1.7-47.4a112.38,112.38,0,0,0-2.1-11.9c-1.2-1.2-1.3,1.5-.4,10,.5,5.2,1.3,17.3,1.6,27l.7,17.5h-5.7c-3.1-.1-5.6-.2-5.6-.4a41.77,41.77,0,0,1,2.1-4.3c1.1-2.3,1.7-4.4,1.4-4.7-.8-.8-.9-.5-9.6,15.2-3.6,6.6-7.1,12.2-7.8,12.4-2.3.8-2.2-2.8.3-7,2.7-4.6,4.8-9.8,4.1-9.8-.3,0-2.1,3.2-4,7l-3.5,7-2.6-1.6c-1.3-.9-2.3-2-2.2-2.3s3.4-6.8,7.2-14.4,6.6-14,6.4-14.2-2.8,4.4-5.7,10.4-6.2,12.3-7.2,14.1c-1.9,3.1-2.1,3.2-4,1.5a6.62,6.62,0,0,1-1.9-2.7c0-.4,5.6-13.1,12.4-28.1S145.1,82.4,145.5,81c1.8-5.8-1.3.2-10.5,20.8-9.3,20.9-15.9,35.3-16.6,36s-4.4-2-4.4-3.3c0-1.6,3.1-8.1,14.8-30.8,4.5-8.7,8.2-16.3,8.2-17,0-1.3-1.6,1.1-8,12.1-2.3,4.1-4.3,7.2-4.5,7s.7-6.7,5.9-36.2c2.8-16.2,3.1-19.5,1.7-18.1-.5.6-1.8,5.2-2.8,10.2s-2.1,9.3-2.4,9.3c-1.2,0-14.8-14.9-18.2-20-3.2-4.7-3.4-5.5-2.5-8.8a24.12,24.12,0,0,1,2-5c.6-.6.7-1.2.2-1.2s-5.7,8-11.5,17.8C87.7,69.1,86,71.5,84.1,71.2a4.07,4.07,0,0,0-3.6,1.4c-1,1.4-1.8,1.6-4.4.8l-3.2-.9L79.7,59c3.8-7.4,9.2-17.1,12.1-21.4s5-8.1,4.8-8.4c-.9-.9-12.7,18.4-18.7,30.5-4.4,9-6.4,12.1-7.4,11.6-2.2-.8-1.9-1.8,3-13.9C78,46.4,78.7,44,77.2,44s-4.8,4.2-11.6,14.7c-6.4,9.8-6.8,10.2-9.1,9.1-1.4-.6-2.5-1.5-2.5-1.9s3.1-6.9,6.9-14.4,6.7-14.3,6.5-15,2.1-4,5.4-7.3,7.1-7.8,8.7-9.9C86.1,13.1,91.3,8,93,8,93.9,8,97.5,9.9,101,12.2ZM70.8,25.7C67.9,28.9,61.1,39,58.6,43.8c-.9,1.8-5,6.8-9,11.2A107,107,0,0,0,37.9,70.8C33.5,78.7,27.8,84,23.6,84c-3.4,0-1.3-3,4.9-6.9,3.6-2.3,6.5-4.4,6.5-4.7,0-.6.1-.7-7.7,4-3.4,2.1-6.6,3.5-7.2,3.1-2.5-1.5-.6-3.5,7-7.5,4.4-2.3,7.8-4.4,7.6-4.6s-4.1,1.4-8.6,3.8c-6.9,3.7-8.3,4.1-9.1,2.8-1.8-2.8-1-4.1,3.6-6,4.9-2.2,21-14.3,19.5-14.8-.5-.2-4.3,1.5-8.5,3.7-8.1,4.2-9.2,4.1-8.4-1,.3-2,1.4-2.5,8.1-4,4.3-.9,8.1-2,8.4-2.3,1-1-1.8-.7-8.2.9-7.7,1.8-9.5,1.8-9.5,0,0-.8,1.3-1.6,3.3-2,1.7-.3,5.7-1,8.7-1.5,4.8-.8,4.4-.9-3.3-.4l-8.8.5.3-2.8.3-2.8,9.3.1c5,0,9.2-.3,9.2-.8s-4.3-.8-9.6-.8H21.8l.7-4.3c.4-2.3,1.2-4.5,1.7-4.8s3.9.7,7.5,2.3c7.8,3.7,19.7,5.3,25.8,3.6l4-1.2-4.7-1c-2.7-.5-4.8-1.3-4.8-1.7s2.1-2.5,4.6-4.8c3.4-3,5.6-4.1,8.7-4.4,2.3-.2,5.1-.4,6.1-.5C73.2,23,73.1,23.3,70.8,25.7ZM62.9,45.1c-2.4,4.1-5.7,10.8-7.5,14.9-2.2,5.1-3.5,7-3.9,5.9-.6-1.6,2.9-8.8,10.8-22.2,2.2-3.7,4.1-6.6,4.4-6.4S65.2,41,62.9,45.1Zm43.2,12.3c.1,2.3.4,3.1.6,1.8.9-4.7,3.2-1.7,3.4,4.6.2,3.1.3,3.2.6.9.5-3.2,1.4-3.4,3.8-.7,2,2.2,1.5,3.7-2.5,9l-2,2.5-.1-4c-.1-3.8-.2-3.7-1.3,1.8-.7,3.8-1.8,6.4-3.2,7.5a13.46,13.46,0,0,0-3.3,3.9c-.7,1.3-1.7,2.3-2.3,2.3-1,0-.8-6.6.8-19.5.3-2.9.2-3.5-.5-2-.5,1.1-1.3,7.1-1.9,13.3-.8,9.1-1.4,11.6-2.8,12.7-2.6,2-3.2,1.8-3.7-.8q-.45-2.25-.6,1.2C91,95.1,88.7,99,87,99c-.4,0-.4-1.9.1-4.3a43.16,43.16,0,0,0,.7-7.7c0-2-.7.1-1.5,5-.8,4.7-2.2,9.3-3.1,10.2-1.3,1.5-1.3,1.8-.1,1.8s1.4,1.1,1.2,4.2c-.1,2.4.1,3.3.3,2.1.3-1.4,1.7-2.6,3.9-3.3,5.5-1.8,14.4-8.7,25.8-19.9,7-7,10.7-10,10.7-8.8,0,5.9-3.4,24.3-4.6,25.3-1.4,1.1-27.3,11.5-32.1,12.9-3.6,1-2.8,2.8,1,2,4.3-1,19-5.7,25.5-8.3,2.8-1.2,5.2-1.8,5.2-1.3,0,1.1-13.3,6.3-24.7,9.6a76.17,76.17,0,0,0-9.2,3.1c-1.2,1.3,9.6-.9,21.2-4.2,6.5-1.9,12-3.4,12.3-3.4.9,0-1.8,5.2-6,11.9-2.5,3.9-4.6,7.9-4.6,8.9s1.8,3,3.9,4.7,7.4,5.8,11.6,9.2c11.7,9.6,11,9.6,14.5,1.6,6.5-14.7,8.4-16.7,14.3-14.4,2.5,1,2.7,1.4,2.7,7.1,0,8-1.7,11.7-7.6,16.8-10.1,8.7-18.4,10.4-20.6,4.1-1.4-4-2.8-3.6-6.3,1.9-5.4,8.3-20.2,18.5-34.2,23.3-8.8,3-18.5,2.6-25.9-1.1-12-5.9-29.4-25.5-33.4-37.4-2.3-7.1-5-22-5-28.4,0-5,3.7-20.5,5.4-22.4.9-1,2.8.5,9.3,7,8.6,8.7,8.7,9,1,3.4-2.6-1.9-5-3.2-5.3-2.9s.8,1.9,2.3,3.7c3,3.7,11.5,8,15.3,7.9,2.3-.1,2.3-.2-.7-1.5-3.6-1.5-4.5-2.9-1.3-1.9,1.1.3,2,.2,2-.4s-.8-1.2-1.8-1.5a13.75,13.75,0,0,1-4.2-3.2l-2.4-2.5,4.4,1.9c8.2,3.5,13.4,4,6.9.7-1.7-.9-2.9-1.9-2.6-2.1s1.9.2,3.7,1.1c5.3,2.8,5.8,1,.5-2.1-8.1-4.7-12.7-10.1-16.3-18.9L36,80.7l3.4-6.1c7.8-13.8,14.2-22,8.6-11.1-2.4,4.7-2.5,6.2-.4,6.7.9.2,2.5,3.2,4,7.8,3,9.1,11,25.3,13.5,27.6,3,2.7,3.2,1,.6-4.3C63.2,96.4,59,83.4,59,80.9c.1-.8,1.7,3.4,3.6,9.4s4.6,11.9,6,13.5l2.4,2.7-.7-4.5c-.3-2.5-.9-4.7-1.3-5-1.3-1.1-4.1-10-5.5-18s-1.4-8.5.7-12.7c3.4-6.8,4.7-6.9,2.4-.3l-2.1,6.1L67,74c1.3,1,2.8,1.6,3.2,1.4s2.1.2,3.7,1.1A16.18,16.18,0,0,0,79.5,78c2,0,2.5.4,2.1,1.7-.2,1-.7,4.3-1.1,7.3s-.8,7.3-1.1,9.5c-.3,2.6-.2,3.5.4,2.5.5-.8,1.5-6.3,2.3-12.3,1.1-8.9,1.6-10.6,2.8-10.2,2.2.6,4.4-1.4,6-5.3,2.2-5.3,3.5-5.1,2.7.4-.4,3-.3,4.3.2,3.4s1.2-4.1,1.6-7.2c.7-6.4,4.3-13.8,5.7-11.6.7,1,.9.8,1-.7a16.79,16.79,0,0,1,.4-3c.1-.6.3-1.5.4-2C103.3,48.1,106,53.8,106.1,57.4Zm9.3,19.2c-6.9,8-9.5,10.8-12.4,12.9-1.4,1.1,0-.8,3.1-4s7.3-8.1,9.4-10.8,4-4.5,4.3-4.2S118.1,73.5,115.4,76.6ZM27.9,91.2c-1.2,2.9-2.3,5.9-2.6,6.6a33.31,33.31,0,0,1-5.2,5.7c-4.1,3.9-4.8,4.2-6.1,2.9s-1-2,3.5-6C20.2,98,22.1,96,21.7,96s-2.8,1.9-5.3,4.2c-4,3.7-4.6,4-6,2.6s-1.2-1.9,2.3-4.6C21,91.6,28.5,86.1,29.2,86,29.6,86,29,88.4,27.9,91.2Zm9,2.9c1.8,3.4,3,6.3,2.8,6.6s-2.3-1.8-4.6-4.6c-2.6-3.1-3.9-5.5-3.5-6.5C32.6,86.9,33.6,87.7,36.9,94.1ZM22.5,104.9c-.3,1-1.1,3.8-1.8,6.2l-1.3,4.3-2.2-2.2-2.3-2.3,3.2-3.9C21.5,102.7,23.5,101.8,22.5,104.9Zm-2.1,23.3c.4,4,1.3,9.9,2,13,1.6,6.8.6,7.5-4.4,3-3.5-3.1-5-9.6-3.9-17.1.5-4.1,3.2-7.6,4.9-6.6C19.4,120.7,20,124.2,20.4,128.2Zm107.4,42a5.46,5.46,0,0,1,1.2,3.5c0,1.3.4,2.3,1,2.3s.9-1,.7-2.3c-.2-1.7.3-2.2,2.3-2.3a12.33,12.33,0,0,0,4.9-1.3c2.7-1.5,3.8-.7,4.7,3.5.6,3.1.6,3.1-4.8,3.7a85.1,85.1,0,0,1-9.6.7c-3.7,0-4.4-.4-5.3-2.6-.7-2.1-.6-3.1.7-4.5C125.6,168.7,126.2,168.6,127.8,170.2Z"/><path class="cls-1" d="M68.6,43.2c-5.8,9-11.6,20-11.6,22,0,.7,2.5-3.4,5.6-9.1s6.8-12.3,8.3-14.5c3.7-5.5,4.3-6.6,3.6-6.6C74.2,35,71.5,38.7,68.6,43.2Z"/><path class="cls-1" d="M91.3,49.2c-6.9,12.7-10.5,19.9-10,20.4.2.2,2.3-3.6,4.7-8.4s6.1-11.5,8.2-15,3.4-6.2,3-6.2S94.1,44.2,91.3,49.2Z"/><path class="cls-1" d="M113.2,43.2c.8,1.3,3.8,6,6.8,10.6s5.4,8.1,5.7,7.9c.5-.6-12.5-20.7-13.3-20.7C112,41,112.4,42,113.2,43.2Z"/><path class="cls-1" d="M121.1,49.2c1.8,3.4,6.1,8.9,6.6,8.4S121.1,47,120.4,47C120.1,47,120.5,48,121.1,49.2Z"/><path class="cls-1" d="M141.7,106.5c-3.2,7.8-3.4,9.5-.5,4,3.3-6.2,4.9-10.5,4-10.5C144.7,100,143.2,102.9,141.7,106.5Z"/><path class="cls-1" d="M180,112.5c0,1.1,3.4,7.5,4.1,7.5.3,0-.2-1.8-1.3-4C181,112.4,180,111.1,180,112.5Z"/><path class="cls-1" d="M177,114.1c0,1.5,3.6,7.9,4.5,7.9.5,0-3.2-7.8-4.1-8.9C177.2,112.9,177,113.3,177,114.1Z"/><path class="cls-1" d="M141,125c-1.9,3.8-3.2,7.1-2.9,7.4s2.2-2.8,4.2-6.9,3.3-7.5,2.9-7.5S142.9,121.2,141,125Z"/><ellipse cx="101" cy="61.5" rx="1" ry="1.5"/><path class="cls-1" d="M105.2,65c0,1.4.2,1.9.5,1.2a5.28,5.28,0,0,0,0-2.5C105.4,63.1,105.2,63.6,105.2,65Z"/><path class="cls-1" d="M104.5,69.2c-1,3.4-1.6,11.2-.7,10.3,1.1-1.1,2.6-11.5,1.7-11.5C105.2,68,104.8,68.6,104.5,69.2Z"/><path class="cls-1" d="M88.7,76.7c-.4.3-.7,2-.6,3.7l.1,3.1L89,80C89.9,76.4,89.8,75.5,88.7,76.7Z"/><path class="cls-1" d="M68.1,78.6c0,1.1.3,1.4.6.6a2,2,0,0,0-.1-1.9C68.3,76.9,68,77.5,68.1,78.6Z"/><path class="cls-1" d="M92.5,78.3c-.4,1-.5,2.1-.1,2.4,1,1,1.8-.4,1.3-2.4C93.3,76.6,93.3,76.6,92.5,78.3Z"/><path class="cls-1" d="M76.6,81.2c-1.3,4.4-3.6,17.3-3.5,19.6.1,3.1,2.4-6.1,3.7-15.1C77.6,80.5,77.5,78.2,76.6,81.2Z"/><path class="cls-1" d="M71,82.6c0,.8.5,1.2,1,.9a1.9,1.9,0,0,0,1-1.6.92.92,0,0,0-1-.9C71.5,81,71,81.7,71,82.6Z"/><path class="cls-1" d="M67,83.6c0,.8.5,1.2,1,.9a1.9,1.9,0,0,0,1-1.6.92.92,0,0,0-1-.9C67.5,82,67,82.7,67,83.6Z"/><path class="cls-1" d="M91.6,84.2a4,4,0,0,0,.4,3.2c.7.7,1-.1,1-2.2C93,81.5,92.5,81.1,91.6,84.2Z"/><path class="cls-1" d="M70.6,86.1c-1.1,3.5-1.5,7.9-.7,8.3.5.3,1.1-1.6,1.4-4.2C71.8,85.6,71.5,83.4,70.6,86.1Z"/><path class="cls-1" d="M77.6,105.6a59.21,59.21,0,0,0-.5,7.8l.1,3.1L78,113c1.3-6,1.8-12,1-12C78.6,101,78,103.1,77.6,105.6Z"/><path class="cls-1" d="M72.2,108.2c-.1,1.7-.8,2.8-1.7,2.8-1.5,0-4.5,4.9-4.5,7.4,0,3.2,2.1,2.6,3.6-1.1.9-2.1,2.1-4.1,2.6-4.4s.8-2.1.5-4C72.4,106,72.3,105.9,72.2,108.2Z"/><path class="cls-1" d="M83.1,114.6c0,1.1.3,1.4.6.6a2,2,0,0,0-.1-1.9C83.3,112.9,83,113.5,83.1,114.6Z"/><path class="cls-1" d="M65.5,127c-6.5.9-16.4,4-20,6.4-2.9,1.9-3.6,7.3-2.5,18,1,9.5,4.9,21.6,6.9,21.6.3,0,.5-6.5.3-14.5-.2-11.9-.6-14.5-1.8-14.5-2.6,0-1.4-2.9,2.3-5.5,2.1-1.4,4.4-2.5,5.2-2.5s4.8-1.6,9.1-3.5c8.7-3.9,13.3-4.3,22.3-2,9.3,2.4,15.9,7.3,17.3,13,.6,2.6.5,2.8-.8,1.7-1.9-1.5-2.2-.7-3.9,12.3-1.1,8.6-2.7,15-3.6,14.2-.2-.2.6-6.1,1.7-13.1s1.8-13.1,1.5-13.6-3.2-.8-6.5-.8c-6.9,0-6.2-1.2-7.9,14C83.7,170.3,83.7,176,85,176c.6,0,1-.9,1-2.1s.5-1.7,1-1.4,1,1.5,1,2.6.4,1.9.9,1.9c.9,0,1.6-3.8,2.7-14.3.4-3.7,1.1-7,1.7-7.4s.8.3.4,1.8a174.83,174.83,0,0,0-2.1,17.5,18.87,18.87,0,0,1-1,5.3c-1.5,2.4,1.2.9,4.6-2.7,7.1-7.3,12.8-19.7,12.8-27.9,0-6.1-2-10.1-7.2-14.9C92.6,126.8,82.8,124.8,65.5,127ZM46.7,156.2c-.2,1.8-.4.4-.4-3.2s.2-5,.4-3.3A35.28,35.28,0,0,1,46.7,156.2Zm57.8-1-1.5,4.3.5-4.9c.3-2.7.5-5.6.6-6.5q0-1.65.9.6C105.6,150.2,105.4,152.4,104.5,155.2Z"/><path class="cls-1" d="M75.3,144.8c-2,1.6-2.1,2.5-2,15.6.1,9.2.6,14.1,1.3,14.3s1.4-2.8,1.8-9c1.1-15,2.7-17.3,2-3-.4,8.3-.2,12.3.5,12.3.5,0,1.2-1.5,1.5-3.3.7-3.8,2.6-24.2,2.6-26.9,0-2.5-3-2.3-3.1.2a15.09,15.09,0,0,1-.9,4.7c-.2.5-.6-.9-.9-2.9C77.5,143.2,77.5,143.1,75.3,144.8Z"/><path class="cls-1" d="M51.7,144.7c-1.4,2.9-.1,28.7,1.4,27.7.5-.3,1-6,1.1-12.7l.2-12.2.5,9.2c.7,10.3,2,13.5,2.2,5.2l.2-5.4.6,5.8c.4,3.2,1.1,6.1,1.7,6.5a6.57,6.57,0,0,1,1.8,2.9c1.4,4.5,2.6,2.2,2.6-4.9,0-8.7.9-8.7,1.1,0,.2,6.2,1.9,10.1,1.9,4.3,0-1.6.5-3.3,1-3.6s1,.7,1,2.4.4,3.1.9,3.1c1,0,1.8-14.9,1.3-22.8-.4-5.6-1.8-7-2.5-2.5-.4,2.6-.4,2.6-.6-.5-.1-3.9-2.1-4.3-2.2-.5,0,2.2-.2,2.4-.8,1-1.2-3.3-2.6-2.3-3.2,2.3l-.6,4.5-.1-4.8c-.2-5.1-2.2-6.7-2.2-1.6,0,1.7-.4,2.8-1,2.4a3.58,3.58,0,0,1-1-2.7c0-1.4-.5-1.8-1.5-1.4s-1.5,0-1.5-.9C54,143.9,52.4,143.4,51.7,144.7Zm17,17.5c-.3.8-.6.5-.6-.6s.2-1.7.5-1.3A2,2,0,0,1,68.7,162.2Z"/></g></g></svg>