<svg xmlns="http://www.w3.org/2000/svg" viewBox="0 0 211.37 190.71"><defs><style>.cls-1{fill-rule:evenodd;}</style></defs><g id="Layer_2" data-name="Layer 2"><g id="New_Layer" data-name="New Layer"><path class="cls-1" d="M44.61,1.36c-2.6,3.1,5.3,13.5,15.3,20a6.6,6.6,0,0,1,2.1,3.7c.5,2.3.3,2.8-1.3,2.8a47.11,47.11,0,0,0-8.2,2c-4.9,1.5-8.4,3.6-14.8,9.1-4.7,3.9-9.6,7.6-11,8.3-4.6,2.4-10.3,2.7-16.4,1.1-8.5-2.2-9.6-.9-5.1,5.7,3.2,4.6,13.2,11.5,18,12.4,2.8.5,3.4,1,2.8,2.3-.4.9-1,6.9-1.3,13.3-.5,9.6-1,12-2.6,13.8-3.7,4-7.4,5.3-14.2,4.7-4.7-.3-6.5-.1-7.4,1-3.4,4,10.9,13.2,21.8,14.1l6.5.5-.6,5.1c-.9,6.8-3.3,8.9-10.1,8.4-4.4-.3-5-.1-5.2,1.7-.2,1.4,1.1,2.9,4.5,5,4.2,2.7,5.6,3,13,3.1h8.3l2.6,4.5c1.4,2.4,3.2,5.1,3.9,6,2.1,2.4,1.7,3.1-1.4,2.4-2.4-.5-4.9.7-15.7,7.9-13.2,8.7-14.9,10.3-13.9,12.9.6,1.7,9.4,6.7,11.9,6.7,1.7,0,26.1-17.1,28.3-19.8a3.55,3.55,0,0,0,.7-3c-.3-.9.1-1.2,1.2-1s3.8,3.2,6.2,6.8c15.9,23,34.2,31.4,57.6,26.5,13.6-2.9,27.1-11.9,33.1-22,2.9-4.9,8.9-21.5,9.8-27l.7-4,19.9.3,19.9.3,3.2-4.3c8-11,7.1-11.8-13.9-11.8-15.8,0-16.7.1-19,2.2l-2.4,2.3.7-7a30.94,30.94,0,0,0-.5-11.3l-1.1-4.4,5.1-4.9c6.6-6.3,6.5-8.5-.4-8.1-5.5.4-8.7-1.3-11.6-6.1a20.74,20.74,0,0,1-2-3.7c0-.3,1.6-1.4,3.5-2.4,3.7-2,7.5-6.9,10-13,2.7-6.3,0-8.7-5.2-4.6a11.41,11.41,0,0,1-7,2c-3.8,0-4.5-.3-5.5-2.8-4.5-11-6.4-14.2-10.7-18.2a28.16,28.16,0,0,1-6.4-9.1c-3.2-8.5-10.1-13.9-17.5-13.9-1.7,0-4-1.5-6.6-4.3-8.1-8.3-17.3-10.5-33-7.6-8.4,1.6-22.8-.1-30.3-3.6C46.41-.54,46.21-.64,44.61,1.36Zm41.3,18.2c4.3,3,9.7,9.9,9.7,12.4,0,3.6-1.9,2.8-3.8-1.4s-7.8-9.4-14.9-13.1c-1.8-.9-3.3-2.1-3.3-2.6C73.61,13.56,81.51,16.56,85.91,19.56Zm21.1,6.5c2,2.3,3.6,4.6,3.6,5.1,0,1-6.5-3.9-9.4-7.2-1.9-2.1-1.9-2.1.2-2.1C102.61,21.86,105,23.66,107,26.06Zm14.6,1.3c0,.5-.5.3-1-.5a6.8,6.8,0,0,1-1-2.5c0-.6.5-.3,1,.5A6.21,6.21,0,0,1,121.61,27.36Zm9.5,6.3a14.66,14.66,0,0,1-.6,6.7l-1.2,3-.8-4c-.9-4.3-.3-9.5,1.1-9.5C130,29.86,130.71,31.56,131.11,33.66Zm-43.9.7c-.4,1.3,1,1.5,9.3,1.5,5.4,0,10,.3,10.4.6s-.1,2.3-.8,4.5c-.9,2.3-1,4.1-.4,4.4s1.2-.1,1.5-.9,1-1.3,1.5-1c1.1.6,1.2,2.4.2,2.3-1.8-.3-5.2,1.4-5.7,2.7-.7,1.8.3,1.8,2.4-.1,1.4-1.2,2.3-1.3,4.5-.5,2.4.9,3.2.7,5.1-1.1,1.4-1.3,2.9-1.9,4.2-1.5a7.84,7.84,0,0,0,4.7-.4c2.4-.9,3.2-.6,6.4,2.1,2,1.8,7.1,8.3,11.3,14.6,6.7,9.7,8.3,13,11.3,22.9,4.7,14.8,5.8,25.7,4.6,43.8-1.1,15.1-3.4,25.8-7.4,34.6-3,6.4-3.8,7.5-9.3,11.7-11.1,8.7-31.2,12.6-44.5,8.7-15.4-4.6-24.3-13.6-36.2-36.5-2.9-5.7-6-12.3-6.9-14.6a10,10,0,0,0-4.6-5.7l-3-1.5.4,3.2c.4,4.5.4,4.5,1.5,1.8.8-2.1,1.2-2.3,2.3-1,1.5,1.5,4.8,12,4,12.8-.2.2-1.6-.6-3-2l-2.7-2.4,1.3,2.4a8.24,8.24,0,0,0,4.1,3.4,7.48,7.48,0,0,1,3.9,4.1c1.2,3.6,1.2,3.6,0,3.6-.5,0-1-.9-1-2,0-2.5-1.6-2.6-2.9-.3-2.8,4.9-11.5-7-12.8-17.4-.7-5.9,0-9.5,2.3-11.8,1.5-1.4,1.9-1.4,5.1.5,3,1.8,3.4,1.8,2.9.4-.4-.9-1.3-6-2.2-11.3-1.4-8.8-1.4-10.9.2-25.1,1.6-14.7,1.9-15.9,5.8-23.4,2.3-4.3,5-8.7,6.1-9.8,4.8-4.6,23.9-17.8,25.8-17.8C87.41,32.86,87.61,33.56,87.21,34.36Zm23.4,2.9c0,.3-.4.8-1,1.1s-1,.1-1-.4a1.1,1.1,0,0,1,1-1.1C110.21,36.86,110.61,37.06,110.61,37.26Zm6.8,1.1c-.7.7-9.8,3.4-9.8,2.9,0-.7,6.4-3.2,8.4-3.3C117.11,37.86,117.71,38.06,117.41,38.36Zm4.7,1.5a3.42,3.42,0,0,1-2.5,1,3.24,3.24,0,0,0-2.6,1.2c-.5.8.4.9,3.4.4,2.6-.4,4.2-.2,4.2.4,0,1.4-7.3,1.3-8.8-.2-.9-.9-.6-1.5,1.6-2.4C120.81,38.76,122.91,38.56,122.11,39.86Zm19.5,9.2c0,3.1-.4,5.9-.9,6.2-.9.6-2.2-12.4-1.4-13.8C140.41,39.76,141.61,43.56,141.61,49.06Zm-27.8-2.6c-.7,1.2-1.1,1.3-1.7.4a1.54,1.54,0,0,1,.6-2.1C114.51,43.66,115,44.36,113.81,46.46Zm-56.7,1.4c.8,1.3-12,7.6-17.2,8.4-7.1,1.1-5.7-1.1,2.2-3.2,4.1-1.1,8.7-3,10.1-4.1C55.21,46.66,56.21,46.36,57.11,47.86ZM46.51,88c-1.6,4.6-6,9.1-12.2,12.4l-5.2,2.7,5.8-5.2a74.21,74.21,0,0,0,8.8-9.7C47.21,83.06,48.11,83.06,46.51,88Zm119,15.2c2.3,2.9,3.4,11,2.1,17s-1.5,6.3-3.9,4.8c-1.2-.8-1.1-1.7.9-5.5l2.5-4.5-3-3c-1.5-1.7-2.6-3.4-2.2-3.7s.2-1.3-.4-2c-1.4-1.7-.5-4.4,1.4-4.4A4.31,4.31,0,0,1,165.51,103.16Zm-1.9,12.3c0,2.1-.4,3.3-1,2.9s-1-1.9-1-3.6.5-2.9,1-2.9S163.61,113.46,163.61,115.46Zm-123.7,5.9c-.7,1.9-7.4,6.7-8.2,5.9-.6-.5,6.9-7.3,8.1-7.4C40.21,119.86,40.31,120.56,39.91,121.36Zm153.7,3.3a4,4,0,0,1-1.2,2c-1.9,1.9.1,1.4,2.7-.6a7.64,7.64,0,0,1,5.9-1.4l3.5.4-2.9,4.2-2.9,4.3-13.5.2c-7.5.1-13.6-.1-13.6-.4a35.55,35.55,0,0,1,3.7-5.1l3.7-4.4h7.3C190.31,123.86,193.61,124.26,193.61,124.66Zm-29.6,3.1c.3.5-.1,1.4-.9,2.1-1.3,1-1.5.9-1.5-.9C161.61,126.86,163,126.16,164,127.76Zm-119.1,30.4,4.9,1.2-7.6,5.8c-7.5,5.6-9.6,6.7-9.6,4.7,0-.6-1.4-1.9-3-2.9l-3-1.8,6.2-4.1a66.9,66.9,0,0,1,6.8-4.2C39.91,156.86,42.31,157.46,44.91,158.16Zm-15.2,10.5c2.4,2,2.1,4.8-.6,5.9-1.7.6-9.5-2.5-9.5-3.7s4.3-3.9,6.1-3.9C26.61,166.86,28.41,167.66,29.71,168.66Z"/><path class="cls-1" d="M122.91,46.86c-2,.8-4.9,4.7-4.1,5.5.2.2,2.1,0,4.3-.5s4.1-.7,4.4-.5c.9,1-5.1,14.3-9.9,22-6.7,10.9-9.2,15.5-8.3,15.5,1.1,0,11.1-14.8,17.2-25.4,5.5-9.5,5.7-10.1,4-9-.8.5-1-.1-.7-2a5.53,5.53,0,0,0-1.2-4.6C126.71,45.66,126.11,45.56,122.91,46.86Zm2.7,2c0,.5-.7,1-1.6,1s-1.2-.5-.9-1a1.9,1.9,0,0,1,1.6-1A.92.92,0,0,1,125.61,48.86Z"/><path class="cls-1" d="M73.61,49.36a32.75,32.75,0,0,0,2,4.8c2,4.1,1.3,3.6-2.6-1.7-5.9-8.3,4.5,15.4,11.2,25.5,5.1,7.5,10.9,13.5,11.8,12.1.3-.6-1.1-3.9-3.2-7.4s-6.9-12.5-10.7-20C76.11,50.86,73.61,47,73.61,49.36Z"/><path class="cls-1" d="M85.61,51.16c0,2.8,5,19,6.3,20.5a14,14,0,0,1,2,5.6c.4,2.2,1.2,4.4,1.8,5,.9.8,1,.2.5-2.4-.4-1.9-1-6.7-1.3-10.5s-.9-7.7-1.5-8.5c-.6-1-.8-.3-.4,2.5.8,5.6-.8,2.8-3.5-6.3-1.2-3.9-2.6-7.2-3-7.2S85.61,50.46,85.61,51.16Z"/><path class="cls-1" d="M110.31,56c-.3,3.4-1,6.6-1.6,7.2a5.42,5.42,0,0,0-1.1,3.3c0,1.2-.4,2.4-.8,2.6s-.5,1.6-.1,3.3c.5,2.3.7,2.5.8.7,0-1.2.7-2.2,1.4-2.2,1.4,0,3.7-10.5,3.7-17C112.61,47.66,110.91,49.16,110.31,56Z"/><path class="cls-1" d="M100.61,53.56a6.87,6.87,0,0,0,1,2.3c.8,1.3,1,1.3,1-.2a2.78,2.78,0,0,0-1-2.3C101.11,53.06,100.61,53.06,100.61,53.56Z"/><path class="cls-1" d="M106.61,55.66a5.64,5.64,0,0,1-1.2,3.1c-.9.9-.9,1.2-.1.7a1.17,1.17,0,0,1,1.6.6c.3.7.6-.4.6-2.5s-.1-3.7-.4-3.7S106.61,54.66,106.61,55.66Z"/><path class="cls-1" d="M95.71,59.46c0,1.1.3,1.4.6.6a2,2,0,0,0-.1-1.9C95.91,57.76,95.61,58.36,95.71,59.46Z"/><path class="cls-1" d="M99.71,63.46c0,1.1.3,1.4.6.6a2,2,0,0,0-.1-1.9C99.91,61.76,99.61,62.36,99.71,63.46Z"/><path class="cls-1" d="M96.71,65.46c0,1.1.3,1.4.6.6a2,2,0,0,0-.1-1.9C96.91,63.76,96.61,64.36,96.71,65.46Z"/><path class="cls-1" d="M58.61,69.76a2.34,2.34,0,0,0,1,1.6c.6.3,1,.2,1-.4a2,2,0,0,0-1-1.6C59.11,69.06,58.61,69.16,58.61,69.76Z"/><path class="cls-1" d="M140.41,71.56c-2.9,4.9-12.1,13-18.3,16.2-3.9,2.1-5,2.9-3,2.5a32.89,32.89,0,0,0,5-1.6c1.1-.5.6.4-1.2,2-4.1,3.5-4.1,4-.3,3.4,1.7-.2,3-.8,3-1.3s.9-.9,2-.9,2-.4,2-.8,1.4-1.3,3.1-1.9,2.8-1.6,2.5-2.1.2-1.6,1.1-2.3c1.2-1,1.4-1,.9-.2s-.3,1.3.2,1.3c1,0,3.7-2.9,3.7-3.9,0-.3.4-.5.9-.3,1.1.4,4.6-2.8,4.6-4.1,0-.6-1.2,0-2.7,1.4-2,1.7-2.3,1.8-1,.3,2.8-3.3,2-4-1.2-1-1.6,1.5-3.2,2.7-3.6,2.6s-2.7,1.4-5.2,3.5-4.6,3.5-4.9,3.3,1.4-1.9,3.6-3.7c3.9-3.1,12.8-15.1,11.3-15.1C142.41,68.86,141.31,70.06,140.41,71.56Z"/><path class="cls-1" d="M99.61,72.06a6.79,6.79,0,0,0,1,2.8c.8,1.2,1,.9,1-1.3,0-1.5-.4-2.7-1-2.7A1.2,1.2,0,0,0,99.61,72.06Z"/><path class="cls-1" d="M144.61,71.36a6.8,6.8,0,0,0,1,2.5c.5.8,1,1,1,.5a6.21,6.21,0,0,0-1-2.5C145.11,71.06,144.61,70.76,144.61,71.36Z"/><path class="cls-1" d="M58.91,74.26c.6,1.4.3,1.7-1,1.2-1.5-.6-1.5-.4.2,1.4,2.2,2.4,2.9,2.6,2.1.4-.9-2.4.6-1.3,4.8,3.3,3.8,4.3,3.9,5.6.2,2.8-2.6-2-3.7-1.9-2.9.1.5,1.4.3,1.5-1.8.4-1.3-.6.1,1.3,3.3,4.5s6.2,5.4,6.8,5a3.94,3.94,0,0,1,3,.5c1.1.6,2,.7,2,.2s-1.2-1.4-2.6-2.1-2.4-1.4-2.1-1.7c.7-.7,6.4,2.3,7.4,3.9s9,4.3,9.9,3.5c.3-.3-1.5-1.5-3.9-2.7-5.6-2.7-11.6-7.9-17.4-15-2.5-3.1-4.8-5.6-5.2-5.6a6.12,6.12,0,0,1-2-.9C58.61,72.76,58.41,73,58.91,74.26Z"/><path class="cls-1" d="M140.61,76.36c-1.3,1.4-2.2,2.7-1.9,2.9s1.4-1,2.7-2.5C144.31,73.16,143.81,73,140.61,76.36Z"/><path class="cls-1" d="M109.61,77.46c0,.8.5,1.2,1,.9a1.22,1.22,0,0,0,.5-1.6C110.21,75.36,109.61,75.66,109.61,77.46Z"/><path class="cls-1" d="M106.91,78.46a2.74,2.74,0,0,0,.6,2.7c.8.8,1.1.4,1.1-1.6C108.61,76.56,107.91,76.06,106.91,78.46Z"/><path class="cls-1" d="M56.11,78.86a2.34,2.34,0,0,0,1.6,1c.6,0,.7-.5.4-1a2,2,0,0,0-1.6-1C55.91,77.86,55.81,78.26,56.11,78.86Z"/><path class="cls-1" d="M103.71,81.46c0,1.1.3,1.4.6.6a2,2,0,0,0-.1-1.9C103.91,79.76,103.61,80.36,103.71,81.46Z"/><path class="cls-1" d="M100.61,81.76a2.14,2.14,0,0,0,1,1.6c.6.3,1-.1,1-.9s-.4-1.6-1-1.6A1,1,0,0,0,100.61,81.76Z"/><path class="cls-1" d="M60.61,89.36c1.3,1.4,2.6,2.3,2.8,2,.7-.7-2.9-4.5-4.1-4.5C58.71,86.86,59.31,88,60.61,89.36Z"/><path class="cls-1" d="M63.11,93.86c.3.5.8,1,1.1,1s.4-.5.4-1a1,1,0,0,0-1.1-1C63,92.86,62.81,93.26,63.11,93.86Z"/><path class="cls-1" d="M65.61,94.16c0,1.6,1.6,3,3.8,3.3,1.9.3,1-1.7-1.6-3.4C65.81,92.76,65.61,92.76,65.61,94.16Z"/><path class="cls-1" d="M104.61,95.76c0,1.2.5,2.1,1,2.1s1-.6,1-1.4a2.52,2.52,0,0,0-1-2.1C105.11,94.06,104.61,94.66,104.61,95.76Z"/><path class="cls-1" d="M74.51,100.06c-1.5,2.9-.4,20.5,2.1,32,2.9,13.2,7.5,27.4,11.7,35.8,4.9,9.6,6.9,10.2,14.6,3.7,8.3-7,17.4-9.6,25.2-7.3,7.5,2.3,8.2,1.5,6.6-7.1-1.1-5.6-4.4-27.9-6.7-44.3-.8-6.3-2.1-12.1-2.7-12.7-1-1-2.3-.9-6.4.7-13.1,5-27.5,4.8-35.4-.5C78.81,97.26,76,97.16,74.51,100.06Zm5.9,2a14.65,14.65,0,0,0,5,2.3c2.5.7,3.8,1.8,4.3,3.5.7,2.4.7,2.4.8.2.1-2.4.8-2.5,8.4-1.3,2.6.4,5,.5,5.2.1s2.6-1,5.2-1.3c6.6-.8,9.5-1.4,11.4-2.1,2.1-.9,3.6,1.1,4.1,5.3.2,2.2-.2,3.6-1.2,4.1-4.8,2.4-6.9,3.1-8.6,2.9a5.58,5.58,0,0,0-3.2.4,9,9,0,0,1-4.2.9c-1.8.1-2.9.6-2.7,1.2a1.56,1.56,0,0,0,1.8.7c.8-.2,4.2-1,7.7-1.7s7.2-1.8,8.2-2.4c2.9-1.6,3.3-1.2,2.7,2.5-.3,1.9-.2,3.5.3,3.5s.8,1.5.9,3.2c.1,3.9,1.4,11.8,3.5,20.8.8,3.5,1.2,6.8,1,7.2s-2.6.8-5.2.8a39.53,39.53,0,0,0-8.2.9c-1.9.5-4.8,1.2-6.3,1.5s-2.5,1.1-2.1,1.7c.4.8,1,.7,1.7,0,1.9-1.9,4.7-1.3,4.7.9a7.54,7.54,0,0,0,.3,2.6c.2.8-.7,1.3-7.5,4.4-2.7,1.2-5.1,2.7-5.4,3.2-.5.7-1.3.4-2.2-.8-1.4-1.8-1.4-1.8-.8,0,.7,2-.9,4.6-2.8,4.6-.7,0-1.7-1.9-2.3-4.3-1-3.6-1-4.4.4-5.4.9-.7,2-1,2.4-.7a.55.55,0,0,0,.9-.5c0-1.5,3.7-1.4,4.3.1.3.8.6.6.6-.4a4.34,4.34,0,0,1,1.9-2.8c3.2-2-4.4,0-9.8,2.6a30.09,30.09,0,0,1-6,2.4c-1.1,0-3.4-7.9-2.6-8.8.3-.3.1-1.1-.5-1.9s-.8-1.3-.1-1.3c.5,0,.8-.9.5-2.1s-.8-1.7-1.3-.9c-1.2,2-3.6-5.6-6.5-20.5a93.15,93.15,0,0,1-1.5-11.3v-3.3l4,2.2c2.2,1.3,4,2.7,4,3.3s.4.5.8-.2c.6-.9,1.6-1,3.3-.4,2,.8,2.7,2.1,3.8,7.3.7,3.5,1.7,7.7,2.2,9.3.6,1.9.6,3.3-.1,4-1.5,1.5-1.2,2.6.4,2,.9-.3,1.7.3,2.1,1.5s1,1.9,1.5,1.6.5-1.7-.1-3.2A40.33,40.33,0,0,1,98,134a18.93,18.93,0,0,0-1.2-4.6,7.62,7.62,0,0,1-.9-2.9,7.8,7.8,0,0,0-1.4-3.2c-1.2-1.5.5-2.9,2.3-1.8q1.05.75.3-.6c-.5-.8-.2-1.8.9-2.5,1.5-1.2,1.5-1.3-.6-1.3a45.34,45.34,0,0,1-12.8-2.4c-7-2.8-7.5-3.3-7.8-7.2C76.31,101.46,77.71,99.36,80.41,102.06Zm51.7,55.5c.3,1.9.4,3.7.1,4-1.1,1.1-3.6-.7-3.6-2.6,0-1.1-.4-2.3-1-2.6s-.7.6-.4,2.5c.7,3.4-.1,3.7-3.5,1.3-1.4-.9-2.1-1.2-1.8-.6,1,1.6-2.3,2.5-3.9,1.2a4.89,4.89,0,0,1-1.4-3.5c0-2.4,1.4-2.9,10.7-3.1C131.21,154.06,131.41,154.16,132.11,157.56ZM94.21,169c1.7,5.6,1.7,5.5-.5,3.5s-4.3-7.1-3.3-8C91.71,163.16,93,164.66,94.21,169Z"/><path class="cls-1" d="M82.61,108.26c0,1.9.3,3.7.8,4s.6-1.3.4-3.5C83.31,104,82.61,103.66,82.61,108.26Z"/><path class="cls-1" d="M118.41,108.86c.2,1.7.9,3.3,1.5,3.7s.8-.2.4-1.8a16.55,16.55,0,0,1-.7-3.7c0-.6-.4-1.2-.8-1.2S118.11,107.26,118.41,108.86Z"/><path class="cls-1" d="M103.81,110.86c0,1.4.2,1.9.5,1.2a5.28,5.28,0,0,0,0-2.5C104,109,103.81,109.46,103.81,110.86Z"/><path class="cls-1" d="M90.81,112.86c0,1.4.2,1.9.5,1.2a5.28,5.28,0,0,0,0-2.5C91,111,90.81,111.46,90.81,112.86Z"/><path class="cls-1" d="M97.11,112.86c.3.5.8,1,1.1,1s.4-.5.4-1a1,1,0,0,0-1.1-1C97,111.86,96.81,112.26,97.11,112.86Z"/><path class="cls-1" d="M81.11,124.46c.4,4.3.9,8.2,1.3,8.8a6.62,6.62,0,0,1,.7,2.6c.6,5.8,1.8,10,3.1,10,.8,0,1.6,1.5,2,4,1,6.4,2.7,6.1,2-.4a33.64,33.64,0,0,0-1.1-6.7c-.4-.5-.2-.9.4-.9s.5-1.2-.2-3-1.5-3-1.9-3-.8-.5-.8-1.1.4-.7,1-.4.7-.1.4-.9-.1-1.6.5-1.6c1,0,1.2.7,1.6,5a4.9,4.9,0,0,0,.7,2.5,22.47,22.47,0,0,1,1.2,5c.9,5.1,2.6,8.1,2.6,4.5a39.13,39.13,0,0,0-1.1-7c-.7-3.1-.7-4.6,0-4.8a2.15,2.15,0,0,0,1.1-2c0-1.5-.2-1.5-1.1-.2s-1,1.1-.6-.8c.3-1.2.1-2.2-.5-2.2s-.6-.9-.3-2,.2-2-.3-2c-1.1,0-3.6-5.8-3.3-7.6.1-.7-1-1.1-2.3-1-2.4.1-2.4.2-1,2.4.8,1.2,1.2,2.7.9,3.3s-.3.9.2.8q3-.6,1.2,1.8c-1,1.1-1,1.4-.1.9s1.2-.1,1.2,1c0,3.3-3-.7-4.6-6.2C81.71,115.16,80.51,115.66,81.11,124.46Z"/><path class="cls-1" d="M112.11,120.86c.3.5.8,1,1.1,1s.4-.5.4-1a1,1,0,0,0-1.1-1C112,119.86,111.81,120.26,112.11,120.86Z"/><path class="cls-1" d="M109.11,123.56c.5,1,1.5,5.5,2.3,10,.9,4.7,2.1,8.4,2.9,8.7,1.7.7,1.6-.6-.1-7.4-1.4-5.5-1.4-5.5.5-3.1,2.2,2.7,2.3,2.1.5-3.9-1-3.2-1.8-4.4-3-4.2-.9.2-1.6-.2-1.6-.8a1.1,1.1,0,0,0-1.1-1C108.81,121.86,108.71,122.56,109.11,123.56Z"/><path class="cls-1" d="M117,125.76a43.68,43.68,0,0,1,.6,5.2c0,1.1.5,1.9,1.1,1.9,1.4,0,.3-8-1.3-9.5C116.61,122.66,116.51,123.36,117,125.76Z"/><path class="cls-1" d="M97.61,125.36c0,2.6,4.6,18.5,5.3,18.5.5,0,.6-.8.2-1.9s-1.2-4.9-2-8.6-1.9-7.3-2.4-7.8S97.61,124.86,97.61,125.36Z"/><path class="cls-1" d="M122.11,125.86c-.3.6.1.7.9.4,1.8-.7,2.1-1.4.7-1.4A1.9,1.9,0,0,0,122.11,125.86Z"/><path class="cls-1" d="M102.21,129.86c.8,7.3,5.2,22.6,5.4,18.8,0-2.3-3.6-17.6-4.9-20.8C101.81,125.76,101.71,126.06,102.21,129.86Z"/><path class="cls-1" d="M104.61,127.56a3.85,3.85,0,0,0,1,2.8c1.3.8,1.3-1.5,0-3.5C104.81,125.66,104.61,125.76,104.61,127.56Z"/><path class="cls-1" d="M105.61,132.86a1.1,1.1,0,0,0,1.1,1c.5,0,.7-.5.4-1s-.8-1-1.1-1S105.61,132.26,105.61,132.86Z"/><path class="cls-1" d="M119.11,136.56c.3,1.8.2,3.4-.4,3.8a6.87,6.87,0,0,0-2.1,2.5c-.9,1.6-.7,1.7,1.4.7,3.1-1.5,4.3-6.5,2-8.6C118.51,133.46,118.51,133.66,119.11,136.56Z"/><path class="cls-1" d="M106.61,136.76c0,.6.9.9,2,.8s2-.5,2-.9-.9-.8-2-.8S106.61,136.26,106.61,136.76Z"/><path class="cls-1" d="M116.21,137.56c-.6,1.4-.5,1.5.5.6.7-.7,1-1.5.7-1.8S116.51,136.56,116.21,137.56Z"/><path class="cls-1" d="M125.61,140c0,.5.5.7,1,.4s1-.8,1-1.1-.4-.4-1-.4A1.1,1.1,0,0,0,125.61,140Z"/><path class="cls-1" d="M99.61,149.36c.1,2.6.2,2.8,1.1,1.2.8-1.4.8-2.2,0-3S99.61,147.26,99.61,149.36Z"/><path class="cls-1" d="M55.31,108.66a5.76,5.76,0,0,0-.3,3.8c.5,1.9,1.2,2.5,2.9,2.2a3.12,3.12,0,0,0,2.5-2c.2-1.2-.2-1.5-1.7-1.1s-2-.1-2.3-1.9C56.21,108.06,55.91,107.76,55.31,108.66Z"/><path class="cls-1" d="M59,129.06c.3,1.3.6,2.6.6,2.9s.7,1,1.6,1.3c2.1.8,4.4-1.1,4.4-3.7,0-2-.1-2-1.3-.2-1.5,1.9-3.7,1.3-3.7-1.1a1.27,1.27,0,0,0-1.1-1.4C58.81,126.86,58.61,127.76,59,129.06Z"/><path class="cls-1" d="M115,167.26a10.52,10.52,0,0,0-4,2.8c-.6,1-.4,1,1-.1.9-.8,3.9-1.5,6.6-1.5,4.8-.1,5.4-.8,1.5-1.9C119,166.16,116.71,166.56,115,167.26Z"/></g></g></svg>