<svg width="105" height="64" viewBox="0 0 105 64" fill="none" xmlns="http://www.w3.org/2000/svg">
    <g id="Group 2">
        <circle id="Ellipse 5" cx="51.9838" cy="55.0272" r="8.36982" stroke="white" />

        <g id="Group">
            <path id="A" d="M27.0215 37.8001L25.1954 38.9468L21.5759 34.799L17.4607 37.3833L19.6246 42.4451L17.8515 43.5586L17.8183 43.5057L8.50569 20.4788L10.3185 19.3404L27.0215 37.8001ZM20.3157 33.321L11.4564 23.2385L16.6768 35.6061L20.3157 33.321Z" fill="white" />
    
            <path id="b" d="M40.4398 29.8993C40.6844 30.8043 40.5915 31.6387 40.1612 32.4023C39.7282 33.156 39.0642 33.6537 38.1692 33.8955L32.8595 35.33L26.4816 11.7233L28.4878 11.1812L31.0104 20.5183C31.7777 20.2032 32.545 19.888 33.3122 19.5728C34.2825 19.1703 35.0543 18.8917 35.6275 18.7368C36.7437 18.4353 37.4499 18.8325 37.746 19.9286L40.4398 29.8993ZM38.3521 30.1396L35.805 20.712L31.418 22.0268L34.3889 33.0231L37.1644 32.2733C38.2605 31.9771 38.6564 31.2659 38.3521 30.1396Z" fill="white" />
            <path id="o" d="M57.712 30.5621C57.6731 31.7386 57.0655 32.3074 55.8891 32.2686L50.6732 32.0965C49.5071 32.058 48.9435 31.4505 48.9823 30.2741L49.3673 18.6086C49.4061 17.4321 50.0085 16.8631 51.1745 16.9016L56.3904 17.0737C57.5669 17.1125 58.1357 17.7202 58.0969 18.8966L57.712 30.5621ZM55.637 30.4311L56.0178 18.8905L51.4422 18.7396L51.0614 30.2802L55.637 30.4311Z" fill="white" />
            <path id="u" d="M73.4828 36.4097L71.5463 35.7467L71.6829 35.3476C70.8574 35.1861 70.0385 35.0213 69.2262 34.8533C68.2396 34.6477 67.4359 34.4386 66.815 34.226C65.7507 33.8617 65.4007 33.1473 65.7651 32.0829L70.1731 19.2072L72.1096 19.8702L67.7876 32.4946L72.189 33.8693L76.4705 21.3631L78.407 22.0261L73.4828 36.4097Z" fill="white" />
            <path id="t" d="M85.0124 43.1142L82.5647 41.4621C81.5977 40.8094 81.4434 39.9953 82.1019 39.0196L88.5968 29.397L87.0815 28.3743L88.1042 26.859L89.6195 27.8817L92.2681 23.9576L93.9647 25.1027L91.3161 29.0269L93.5178 30.5129L92.495 32.0282L90.2934 30.5421L83.8335 40.1129L86.0352 41.599L85.0124 43.1142Z" fill="white" />
        </g>
    </g>
</svg>