<svg width="105" height="64" viewBox="0 0 105 64" fill="none" xmlns="http://www.w3.org/2000/svg">
<g id="Group 5">
<circle id="Ellipse 5" cx="51.9838" cy="55.027" r="10.3698" stroke="white" stroke-width="3"/>
<g id="Group">
<g id="A">
<path d="M27.0215 37.8001L25.1954 38.9468L21.5759 34.799L17.4607 37.3833L19.6246 42.4451L17.8515 43.5586L17.8183 43.5057L8.50569 20.4788L10.3185 19.3404L27.0215 37.8001ZM20.3157 33.321L11.4564 23.2385L16.6768 35.6061L20.3157 33.321Z" fill="white"/>
<path d="M27.0215 37.8001L27.5533 38.647L28.5627 38.0131L27.763 37.1292L27.0215 37.8001ZM25.1954 38.9468L24.4419 39.6043L25.0037 40.248L25.7272 39.7937L25.1954 38.9468ZM21.5759 34.799L22.3294 34.1415L21.7676 33.4978L21.0441 33.9522L21.5759 34.799ZM17.4607 37.3833L16.9289 36.5364L16.2053 36.9908L16.5412 37.7764L17.4607 37.3833ZM19.6246 42.4451L20.1564 43.292L20.88 42.8376L20.5441 42.052L19.6246 42.4451ZM17.8515 43.5586L17.0046 44.0904L17.5364 44.9373L18.3833 44.4055L17.8515 43.5586ZM17.8183 43.5057L16.8912 43.8806L16.9244 43.9626L16.9714 44.0375L17.8183 43.5057ZM8.50569 20.4788L7.97388 19.632L7.26464 20.0773L7.57863 20.8537L8.50569 20.4788ZM10.3185 19.3404L11.06 18.6695L10.4971 18.0474L9.7867 18.4936L10.3185 19.3404ZM20.3157 33.321L20.8475 34.1679L21.8421 33.5433L21.0669 32.661L20.3157 33.321ZM11.4564 23.2385L12.2076 22.5784L10.5351 23.6273L11.4564 23.2385ZM16.6768 35.6061L15.7555 35.995L16.2128 37.0783L17.2086 36.453L16.6768 35.6061ZM26.4896 36.9532L24.6636 38.1L25.7272 39.7937L27.5533 38.647L26.4896 36.9532ZM25.9489 38.2893L22.3294 34.1415L20.8225 35.4565L24.4419 39.6043L25.9489 38.2893ZM21.0441 33.9522L16.9289 36.5364L17.9925 38.2301L22.1077 35.6459L21.0441 33.9522ZM16.5412 37.7764L18.7051 42.8382L20.5441 42.052L18.3802 36.9902L16.5412 37.7764ZM19.0928 41.5983L17.3197 42.7117L18.3833 44.4055L20.1564 43.292L19.0928 41.5983ZM18.6984 43.0268L18.6651 42.9739L16.9714 44.0375L17.0046 44.0904L18.6984 43.0268ZM18.7453 43.1307L9.43274 20.1039L7.57863 20.8537L16.8912 43.8806L18.7453 43.1307ZM9.03749 21.3257L10.8503 20.1873L9.7867 18.4936L7.97388 19.632L9.03749 21.3257ZM9.577 20.0114L26.2799 38.4711L27.763 37.1292L11.06 18.6695L9.577 20.0114ZM21.0669 32.661L12.2076 22.5784L10.7052 23.8985L19.5645 33.9811L21.0669 32.661ZM10.5351 23.6273L15.7555 35.995L17.5981 35.2173L12.3777 22.8496L10.5351 23.6273ZM17.2086 36.453L20.8475 34.1679L19.7839 32.4742L16.145 34.7593L17.2086 36.453Z" fill="white"/>
</g>
<g id="b">
<path d="M40.4398 29.8993C40.6844 30.8043 40.5915 31.6387 40.1612 32.4023C39.7282 33.156 39.0642 33.6537 38.1692 33.8955L32.8595 35.33L26.4816 11.7233L28.4878 11.1812L31.0104 20.5183C31.7777 20.2032 32.545 19.888 33.3122 19.5728C34.2825 19.1703 35.0543 18.8917 35.6275 18.7368C36.7437 18.4353 37.4499 18.8325 37.746 19.9286L40.4398 29.8993ZM38.3521 30.1396L35.805 20.712L31.418 22.0268L34.3889 33.0231L37.1644 32.2733C38.2605 31.9771 38.6564 31.2659 38.3521 30.1396Z" fill="white"/>
<path d="M40.1612 32.4023L41.0283 32.9006L41.0324 32.8932L40.1612 32.4023ZM32.8595 35.33L31.8942 35.5908L32.155 36.5562L33.1204 36.2954L32.8595 35.33ZM26.4816 11.7233L26.2208 10.7579L25.2554 11.0187L25.5162 11.9841L26.4816 11.7233ZM28.4878 11.1812L29.4532 10.9204L29.1924 9.95504L28.227 10.2159L28.4878 11.1812ZM31.0104 20.5183L30.0451 20.7792L30.341 21.8745L31.3904 21.4433L31.0104 20.5183ZM33.3122 19.5728L33.6922 20.4978L33.6953 20.4965L33.3122 19.5728ZM35.805 20.712L36.7704 20.4512L36.5024 19.4591L35.518 19.7541L35.805 20.712ZM31.418 22.0268L31.1309 21.0689L30.1988 21.3482L30.4526 22.2876L31.418 22.0268ZM34.3889 33.0231L33.4235 33.2839L33.6844 34.2493L34.6497 33.9885L34.3889 33.0231ZM39.4745 30.1601C39.6558 30.8314 39.5819 31.3933 39.29 31.9114L41.0324 32.8932C41.601 31.8841 41.7129 30.7773 41.4052 29.6384L39.4745 30.1601ZM39.2941 31.9041C39.0027 32.4113 38.5662 32.7523 37.9083 32.9301L38.43 34.8608C39.5621 34.555 40.4536 33.9006 41.0282 32.9005L39.2941 31.9041ZM37.9083 32.9301L32.5987 34.3646L33.1204 36.2954L38.43 34.8608L37.9083 32.9301ZM33.8249 35.0692L27.447 11.4624L25.5162 11.9841L31.8942 35.5908L33.8249 35.0692ZM26.7424 12.6887L28.7486 12.1466L28.227 10.2159L26.2208 10.7579L26.7424 12.6887ZM27.5224 11.4421L30.0451 20.7792L31.9758 20.2575L29.4532 10.9204L27.5224 11.4421ZM31.3904 21.4433C31.431 21.4267 31.4218 21.4305 31.4624 21.4138C31.5059 21.3959 31.4908 21.4021 31.5343 21.3842C31.5778 21.3664 31.5627 21.3726 31.6062 21.3547C31.6523 21.3358 31.6321 21.3441 31.6782 21.3251C31.7242 21.3062 31.704 21.3145 31.7501 21.2956C31.7961 21.2767 31.776 21.285 31.822 21.266C31.8681 21.2471 31.8479 21.2554 31.8939 21.2365C31.94 21.2176 31.9198 21.2259 31.9659 21.2069C32.0119 21.188 31.9918 21.1963 32.0378 21.1774C32.0839 21.1585 32.0637 21.1668 32.1097 21.1478C32.1558 21.1289 32.1356 21.1372 32.1817 21.1183C32.2277 21.0994 32.2076 21.1077 32.2536 21.0887C32.2997 21.0698 32.2795 21.0781 32.3255 21.0592C32.3716 21.0403 32.3514 21.0486 32.3975 21.0296C32.4435 21.0107 32.4233 21.019 32.4694 21.0001C32.5154 20.9812 32.4953 20.9895 32.5413 20.9705C32.5855 20.9524 32.7849 20.8705 32.8291 20.8523C32.8732 20.8342 33.0726 20.7523 33.1168 20.7341C33.1609 20.716 33.3604 20.6341 33.4045 20.6159C33.4486 20.5978 33.6481 20.5159 33.6922 20.4977L32.9322 18.6478C32.8881 18.6659 32.8325 18.6887 32.7884 18.7069C32.7442 18.725 32.6887 18.7478 32.6445 18.766C32.6004 18.7841 32.5448 18.8069 32.5007 18.8251C32.4565 18.8432 32.4009 18.866 32.3568 18.8842C32.3437 18.8896 32.334 18.8935 32.3208 18.8989C32.3077 18.9043 32.298 18.9083 32.2849 18.9137C32.2388 18.9326 32.259 18.9243 32.2129 18.9433C32.1669 18.9622 32.187 18.9539 32.141 18.9728C32.0949 18.9917 32.1151 18.9834 32.0691 19.0024C32.023 19.0213 32.0432 19.013 31.9971 19.0319C31.9511 19.0508 31.9713 19.0425 31.9252 19.0615C31.8792 19.0804 31.8993 19.0721 31.8533 19.091C31.8072 19.1099 31.8274 19.1016 31.7813 19.1206C31.7372 19.1387 31.5378 19.2206 31.4936 19.2388C31.4495 19.2569 31.25 19.3388 31.2059 19.357C31.1617 19.3751 30.9623 19.457 30.9182 19.4752C30.8687 19.4955 30.6799 19.5731 30.6304 19.5934L31.3904 21.4433ZM33.6953 20.4965C34.6511 20.1001 35.3767 19.8404 35.8883 19.7022L35.3666 17.7714C34.7319 17.9429 33.914 18.2406 32.9291 18.649L33.6953 20.4965ZM35.8883 19.7022C36.302 19.5905 36.4615 19.6562 36.504 19.6802C36.5424 19.7018 36.674 19.7947 36.7806 20.1895L38.7114 19.6678C38.5219 18.9665 38.1523 18.3127 37.4846 17.937C36.8209 17.5637 36.0692 17.5816 35.3666 17.7714L35.8883 19.7022ZM36.7806 20.1895L39.4745 30.1601L41.4052 29.6384L38.7114 19.6678L36.7806 20.1895ZM39.3175 29.8788L36.7704 20.4512L34.8396 20.9728L37.3868 30.4004L39.3175 29.8788ZM35.518 19.7541L31.1309 21.0689L31.7051 22.9847L36.0921 21.6699L35.518 19.7541ZM30.4526 22.2876L33.4235 33.2839L35.3543 32.7623L32.3834 21.7659L30.4526 22.2876ZM34.6497 33.9885L37.4252 33.2386L36.9036 31.3079L34.1281 32.0577L34.6497 33.9885ZM37.4252 33.2386C38.1288 33.0485 38.7831 32.6762 39.1572 32.0041C39.5279 31.3382 39.5081 30.5843 39.3175 29.8788L37.3868 30.4004C37.5004 30.8212 37.4349 30.986 37.4097 31.0313C37.3879 31.0705 37.2961 31.2018 36.9036 31.3079L37.4252 33.2386Z" fill="white"/>
</g>
<g id="o">
<path d="M57.712 30.5621C57.6731 31.7386 57.0655 32.3074 55.8891 32.2686L50.6732 32.0965C49.5071 32.058 48.9435 31.4505 48.9823 30.2741L49.3673 18.6086C49.4061 17.4321 50.0085 16.8631 51.1745 16.9016L56.3904 17.0737C57.5669 17.1125 58.1357 17.7202 58.0969 18.8966L57.712 30.5621ZM55.637 30.4311L56.0178 18.8905L51.4422 18.7396L51.0614 30.2802L55.637 30.4311Z" fill="white"/>
<path d="M55.637 30.4311L55.6041 31.4306L56.6035 31.4636L56.6365 30.4641L55.637 30.4311ZM56.0178 18.8905L57.0173 18.9235L57.0503 17.9241L56.0508 17.8911L56.0178 18.8905ZM51.4422 18.7396L51.4752 17.7401L50.4757 17.7071L50.4427 18.7066L51.4422 18.7396ZM51.0614 30.2802L50.0619 30.2472L50.029 31.2466L51.0284 31.2796L51.0614 30.2802ZM56.7125 30.5292C56.6982 30.9633 56.5856 31.1018 56.5437 31.141C56.5018 31.1803 56.3562 31.2834 55.922 31.2691L55.8561 33.268C56.5984 33.2925 57.3448 33.1307 57.9105 32.6011C58.4763 32.0715 58.6869 31.3374 58.7114 30.5951L56.7125 30.5292ZM55.922 31.2691L50.7061 31.097L50.6402 33.0959L55.8561 33.268L55.922 31.2691ZM50.7061 31.097C50.2794 31.0829 50.146 30.9718 50.109 30.9319C50.0704 30.8903 49.9674 30.7435 49.9818 30.3071L47.9829 30.2411C47.9585 30.9812 48.1178 31.7263 48.6429 32.2922C49.1694 32.8597 49.9008 33.0715 50.6402 33.0959L50.7061 31.097ZM49.9818 30.3071L50.3667 18.6415L48.3678 18.5756L47.9829 30.2411L49.9818 30.3071ZM50.3667 18.6415C50.3811 18.2052 50.4936 18.0655 50.5348 18.0265C50.5744 17.9891 50.7149 17.887 51.1416 17.9011L51.2075 15.9022C50.4682 15.8778 49.7244 16.0409 49.1616 16.5725C48.6004 17.1025 48.3922 17.8355 48.3678 18.5756L50.3667 18.6415ZM51.1416 17.9011L56.3575 18.0732L56.4234 16.0743L51.2075 15.9022L51.1416 17.9011ZM56.3575 18.0732C56.7916 18.0875 56.9301 18.2001 56.9693 18.242C57.0086 18.2839 57.1118 18.4295 57.0974 18.8636L59.0963 18.9296C59.1208 18.1873 58.959 17.4409 58.4294 16.8752C57.8998 16.3094 57.1657 16.0988 56.4234 16.0743L56.3575 18.0732ZM57.0974 18.8636L56.7125 30.5292L58.7114 30.5951L59.0963 18.9296L57.0974 18.8636ZM56.6365 30.4641L57.0173 18.9235L55.0184 18.8576L54.6376 30.3982L56.6365 30.4641ZM56.0508 17.8911L51.4752 17.7401L51.4092 19.739L55.9848 19.89L56.0508 17.8911ZM50.4427 18.7066L50.0619 30.2472L52.0609 30.3131L52.4416 18.7725L50.4427 18.7066ZM51.0284 31.2796L55.6041 31.4306L55.67 29.4317L51.0944 29.2807L51.0284 31.2796Z" fill="white"/>
</g>
<g id="u">
<path d="M73.4828 36.4097L71.5463 35.7467L71.6829 35.3476C70.8574 35.1861 70.0385 35.0213 69.2262 34.8533C68.2396 34.6477 67.4359 34.4386 66.815 34.226C65.7507 33.8617 65.4007 33.1473 65.7651 32.0829L70.1731 19.2072L72.1096 19.8702L67.7876 32.4946L72.189 33.8693L76.4705 21.3631L78.407 22.0261L73.4828 36.4097Z" fill="white"/>
<path d="M73.4828 36.4097L73.1589 37.3558L74.105 37.6797L74.4289 36.7336L73.4828 36.4097ZM71.5463 35.7467L70.6002 35.4228L70.2763 36.3689L71.2224 36.6928L71.5463 35.7467ZM71.6829 35.3476L72.629 35.6715L73.0005 34.5864L71.8749 34.3662L71.6829 35.3476ZM69.2262 34.8533L69.0222 35.8323L69.0237 35.8326L69.2262 34.8533ZM70.1731 19.2072L70.497 18.2611L69.5509 17.9372L69.227 18.8833L70.1731 19.2072ZM72.1096 19.8702L73.0557 20.1941L73.3796 19.248L72.4335 18.9241L72.1096 19.8702ZM67.7876 32.4946L66.8415 32.1707L66.5088 33.1428L67.4895 33.4491L67.7876 32.4946ZM72.189 33.8693L71.8909 34.8238L72.8199 35.114L73.1351 34.1932L72.189 33.8693ZM76.4705 21.3631L76.7944 20.417L75.8483 20.0931L75.5244 21.0392L76.4705 21.3631ZM78.407 22.0261L79.3531 22.35L79.677 21.4039L78.7309 21.08L78.407 22.0261ZM73.8067 35.4636L71.8702 34.8006L71.2224 36.6928L73.1589 37.3558L73.8067 35.4636ZM72.4924 36.0706L72.629 35.6715L70.7368 35.0237L70.6002 35.4228L72.4924 36.0706ZM71.8749 34.3662C71.0529 34.2053 70.2375 34.0413 69.4287 33.874L69.0237 35.8326C69.8395 36.0013 70.662 36.1668 71.4909 36.329L71.8749 34.3662ZM69.4303 33.8744C68.4653 33.6732 67.7057 33.474 67.1389 33.2799L66.4911 35.1721C67.1661 35.4032 68.014 35.6222 69.0222 35.8323L69.4303 33.8744ZM67.1389 33.2799C66.7526 33.1477 66.6694 33.012 66.6523 32.977C66.6351 32.942 66.5789 32.7932 66.7112 32.4068L64.819 31.759C64.5869 32.4371 64.5234 33.1776 64.8563 33.8569C65.1891 34.5363 65.8131 34.94 66.4911 35.1721L67.1389 33.2799ZM66.7112 32.4068L71.1192 19.5311L69.227 18.8833L64.819 31.759L66.7112 32.4068ZM69.8492 20.1533L71.7857 20.8163L72.4335 18.9241L70.497 18.2611L69.8492 20.1533ZM71.1635 19.5463L66.8415 32.1707L68.7337 32.8185L73.0557 20.1941L71.1635 19.5463ZM67.4895 33.4491L71.8909 34.8238L72.4872 32.9148L68.0858 31.5401L67.4895 33.4491ZM73.1351 34.1932L77.4166 21.687L75.5244 21.0392L71.2429 33.5454L73.1351 34.1932ZM76.1466 22.3092L78.0832 22.9722L78.7309 21.08L76.7944 20.417L76.1466 22.3092ZM77.461 21.7022L72.5367 36.0858L74.4289 36.7336L79.3531 22.35L77.461 21.7022Z" fill="white"/>
</g>
<g id="t">
<path d="M85.0124 43.1141L82.5647 41.462C81.5977 40.8093 81.4434 39.9952 82.1019 39.0195L88.5968 29.3969L87.0815 28.3742L88.1042 26.8589L89.6195 27.8816L92.2681 23.9575L93.9647 25.1026L91.3161 29.0267L93.5178 30.5128L92.495 32.028L90.2934 30.542L83.8335 40.1128L86.0352 41.5989L85.0124 43.1141Z" fill="white"/>
<path d="M85.0124 43.1141L84.453 43.943L85.2818 44.5024L85.8413 43.6736L85.0124 43.1141ZM88.5968 29.3969L89.4256 29.9563L89.9851 29.1275L89.1562 28.568L88.5968 29.3969ZM87.0815 28.3742L86.2526 27.8147L85.6932 28.6436L86.5221 29.203L87.0815 28.3742ZM88.1042 26.8589L88.6637 26.03L87.8348 25.4706L87.2754 26.2994L88.1042 26.8589ZM89.6195 27.8816L89.0601 28.7105L89.8889 29.2699L90.4484 28.4411L89.6195 27.8816ZM92.2681 23.9575L92.8276 23.1286L91.9987 22.5691L91.4393 23.398L92.2681 23.9575ZM93.9647 25.1026L94.7936 25.662L95.353 24.8332L94.5242 24.2737L93.9647 25.1026ZM91.3161 29.0267L90.4872 28.4673L89.9278 29.2962L90.7566 29.8556L91.3161 29.0267ZM93.5178 30.5128L94.3466 31.0722L94.9061 30.2434L94.0772 29.6839L93.5178 30.5128ZM92.495 32.028L91.9356 32.8569L92.7645 33.4164L93.3239 32.5875L92.495 32.028ZM90.2934 30.542L90.8528 29.7131L90.0239 29.1537L89.4645 29.9826L90.2934 30.542ZM83.8335 40.1128L83.0046 39.5534L82.4452 40.3822L83.274 40.9417L83.8335 40.1128ZM86.0352 41.5989L86.864 42.1583L87.4235 41.3294L86.5946 40.77L86.0352 41.5989ZM85.5719 42.2853L83.1241 40.6331L82.0052 42.2909L84.453 43.943L85.5719 42.2853ZM83.1241 40.6331C82.7703 40.3943 82.7164 40.2292 82.7063 40.1757C82.6957 40.12 82.6865 39.9409 82.9308 39.579L81.2731 38.4601C80.8588 39.0738 80.5975 39.7896 80.7412 40.548C80.8853 41.3087 81.3921 41.877 82.0052 42.2909L83.1241 40.6331ZM82.9308 39.579L89.4256 29.9563L87.7679 28.8374L81.2731 38.4601L82.9308 39.579ZM89.1562 28.568L87.6409 27.5453L86.5221 29.203L88.0373 30.2258L89.1562 28.568ZM87.9104 28.9336L88.9331 27.4183L87.2754 26.2994L86.2526 27.8147L87.9104 28.9336ZM87.5448 27.6877L89.0601 28.7105L90.179 27.0528L88.6637 26.03L87.5448 27.6877ZM90.4484 28.4411L93.097 24.5169L91.4393 23.398L88.7906 27.3222L90.4484 28.4411ZM91.7087 24.7863L93.4053 25.9314L94.5242 24.2737L92.8276 23.1286L91.7087 24.7863ZM93.1359 24.5431L90.4872 28.4673L92.145 29.5862L94.7936 25.662L93.1359 24.5431ZM90.7566 29.8556L92.9583 31.3416L94.0772 29.6839L91.8755 28.1979L90.7566 29.8556ZM92.6889 29.9533L91.6662 31.4686L93.3239 32.5875L94.3466 31.0722L92.6889 29.9533ZM93.0545 31.1992L90.8528 29.7131L89.7339 31.3709L91.9356 32.8569L93.0545 31.1992ZM89.4645 29.9826L83.0046 39.5534L84.6624 40.6723L91.1222 31.1015L89.4645 29.9826ZM83.274 40.9417L85.4757 42.4277L86.5946 40.77L84.3929 39.284L83.274 40.9417ZM85.2063 41.0394L84.1836 42.5547L85.8413 43.6736L86.864 42.1583L85.2063 41.0394Z" fill="white"/>
</g>
</g>
</g>
</svg>
