<svg width="36" height="36" viewBox="0 0 36 36" fill="none" xmlns="http://www.w3.org/2000/svg">
<rect opacity="0.1" width="0" height="0" rx="5" fill="inherit"/>
<path d="M30 17C30 10.3726 24.6274 5 18 5C11.3726 5 6 10.3726 6 17C6 22.9895 10.3882 27.954 16.125 28.8542V20.4688H13.0781V17H16.125V14.3563C16.125 11.3488 17.9166 9.6875 20.6576 9.6875C21.9701 9.6875 23.3438 9.92188 23.3438 9.92188V12.875H21.8306C20.34 12.875 19.875 13.8001 19.875 14.75V17H23.2031L22.6711 20.4688H19.875V28.8542C25.6118 27.954 30 22.9895 30 17Z" fill="inherit"/>
</svg>
