<svg width="105" height="64" viewBox="0 0 105 64" fill="none" xmlns="http://www.w3.org/2000/svg">
    
    <g id="Group A">
        <circle id="Ellipse 5" cx="51.9838" cy="55.0272" r="8.36982" stroke="white" />
        <g id="Group B">
            <path d="M25.5273 38.0784L18.9573 42.3057L5.72603 21.7414L7.5525 20.5662L19.7439 39.5143L24.4874 36.4622L25.5273 38.0784Z" fill="white"/>
            <path d="M39.2385 31.345C39.5554 32.4786 39.1471 33.2038 38.0136 33.5208L32.9876 34.9263C31.864 35.2405 31.1438 34.8308 30.8268 33.6972L27.6835 22.4565C27.3665 21.3229 27.7698 20.599 28.8933 20.2848L33.9193 18.8794C35.0529 18.5624 35.7782 18.9707 36.0952 20.1043L39.2385 31.345ZM37.2203 31.8444L34.1106 20.7241L29.7017 21.957L32.8113 33.0773L37.2203 31.8444Z" fill="white"/>
            <path d="M55.7023 36.42C55.6506 37.5959 55.0367 38.158 53.8608 38.1062L48.928 37.8892C47.7313 37.8365 47.1656 37.0661 47.2311 35.578C47.2389 35.401 47.2558 35.1359 47.2818 34.7825C47.3177 34.44 47.3391 34.1907 47.346 34.0346L49.3909 34.1246L49.3022 36.1383L53.6418 36.3293L53.8177 32.3331L50.3991 32.1827C49.4729 32.1419 48.7163 31.8011 48.1294 31.16C47.5428 30.5086 47.2702 29.7146 47.3114 28.778L47.7023 19.896C47.7417 19.001 48.045 18.2689 48.6122 17.6995C49.1799 17.1197 49.9061 16.8493 50.7906 16.8883C51.03 16.8988 52.2556 17.1248 54.4675 17.5662L54.4861 17.1447L56.5466 17.2354L55.7023 36.42ZM53.898 30.5068L54.4029 19.0335C52.7633 18.8571 51.8082 18.7629 51.5376 18.751C50.3929 18.7006 49.7949 19.2582 49.7436 20.4238L49.3857 28.5565C49.3344 29.7221 49.8811 30.33 51.0258 30.3804L53.898 30.5068Z" fill="white"/>
            <path d="M71.2588 17.0467L69.2431 16.4252L70.0165 13.9167L72.0322 14.5382L71.2588 17.0467ZM65.7693 34.7462L63.8133 34.1432L68.2924 19.6148L70.2484 20.2179L65.7693 34.7462Z" fill="white"/>
            <path d="M80.1955 41.9755L78.4284 40.882L85.45 29.5351L81.4912 27.2323L74.5354 38.4729L72.7682 37.3794L80.7683 24.4514L82.5354 25.5449L82.3134 25.9036C83.0591 26.2426 83.812 26.5799 84.5721 26.9155C85.4882 27.3354 86.2209 27.7153 86.7701 28.0551C87.7533 28.6635 87.9462 29.4505 87.3487 30.416L80.1955 41.9755Z" fill="white"/>
        </g>
      
    </g>

</svg>
