<svg width="140" height="74" viewBox="0 0 185 121" fill="none" xmlns="http://www.w3.org/2000/svg">
<circle cx="92" cy="40" r="40" fill="white"/>
<path d="M7.82067 30.1002C6.64403 30.0679 6.07187 29.4634 6.10421 28.2868L6.23511 23.523C6.26744 22.3463 6.87192 21.7742 8.04856 21.8065L11.5004 21.9013L11.4442 23.9475L8.02358 23.8535L7.90813 28.055L10.9382 28.1383L15.539 22.8251C15.9699 22.3159 16.5185 22.0705 17.1849 22.0888L19.7152 22.1583C20.8918 22.1907 21.464 22.7952 21.4316 23.9718L21.3025 28.6731C21.2701 29.8498 20.6656 30.4219 19.489 30.3896L16.4589 30.3063L16.5143 28.2915L19.5131 28.3739L19.6286 24.1723L16.9733 24.0994L12.3712 29.4594C11.9511 29.9584 11.3922 30.1984 10.6946 30.1792L7.82067 30.1002Z" fill="white"/>
<path d="M10.0606 47.9615C8.90322 48.1759 8.21828 47.7095 8.0058 46.5624L7.10652 41.7074C6.89404 40.5603 7.36649 39.8795 8.52389 39.6651L20.0005 37.5393C21.1579 37.3249 21.8429 37.7913 22.0554 38.9385L22.9546 43.7934C23.1671 44.9406 22.6947 45.6213 21.5373 45.8357L18.5567 46.3878L18.1839 44.3752L21.103 43.8345L20.3176 39.5941L8.96383 41.6971L9.74927 45.9375L13.0832 45.32L13.456 47.3326L10.0606 47.9615Z" fill="white"/>
<path d="M23.5346 61.066L22.7609 59.1709L25.6686 57.9839L24.106 54.487L11.8678 59.483L11.0823 57.5591L25.1578 51.813L25.9432 53.737L25.5526 53.8964C25.9089 54.4936 26.272 55.0936 26.6419 55.6964C27.0725 56.4207 27.3922 57.0384 27.6009 57.5495C28.0339 58.6104 27.7249 59.3554 26.6737 59.7845L23.5346 61.066Z" fill="white"/>
<path d="M24.7603 79.2826C23.7876 79.9455 22.9698 79.7906 22.3069 78.8179L19.3679 74.5054C18.7109 73.5413 18.8687 72.7278 19.8414 72.065L29.4864 65.4918C30.4591 64.8289 31.2739 64.9795 31.931 65.9436L34.87 70.2561C35.5328 71.2288 35.378 72.0465 34.4053 72.7094L24.7603 79.2826ZM23.6416 77.5301L33.1833 71.0274L30.6051 67.2442L21.0634 73.747L23.6416 77.5301Z" fill="white"/>
<path d="M31.5083 89.581L30.0719 88.1228L47.4928 70.9627L48.9292 72.4209L31.5083 89.581Z" fill="white"/>
<path d="M40.3665 97.2666L38.7453 96.0171L53.6732 76.6492L55.2944 77.8988L40.3665 97.2666Z" fill="white"/>
<path d="M61.9526 109.182L59.2215 108.058C58.1426 107.614 57.827 106.848 58.2748 105.759L62.6915 95.0231L61.0009 94.3276L61.6963 92.6369L63.387 93.3324L65.1882 88.954L67.0811 89.7328L65.28 94.1111L67.7365 95.1217L67.041 96.8123L64.5845 95.8018L60.1916 106.48L62.6481 107.491L61.9526 109.182Z" fill="white"/>
<path d="M80.009 112.076C79.7843 113.231 79.0943 113.697 77.9388 113.472L72.816 112.476C71.6708 112.253 71.2105 111.564 71.4352 110.409L73.6629 98.9514C73.8875 97.7959 74.5725 97.3295 75.7177 97.5522L80.8405 98.5483C81.996 98.7729 82.4614 99.463 82.2367 100.618L80.009 112.076ZM77.981 111.618L80.1848 100.283L75.6909 99.4093L73.487 110.744L77.981 111.618Z" fill="white"/>
<path d="M107.557 111.564C107.717 112.73 107.214 113.393 106.047 113.553L101.326 114.201C100.16 114.361 99.4967 113.857 99.3368 112.691L98.8676 109.27L100.896 108.992L101.36 112.382L105.525 111.811L105.113 108.808L99.1206 105.135C98.548 104.793 98.2164 104.292 98.1259 103.631L97.7819 101.123C97.622 99.9572 98.1251 99.2941 99.2913 99.1342L103.951 98.4952C105.117 98.3353 105.78 98.8384 105.94 100.005L106.352 103.008L104.355 103.282L103.947 100.309L99.7831 100.88L100.144 103.512L106.183 107.179C106.743 107.512 107.071 108.024 107.166 108.716L107.557 111.564Z" fill="white"/>
<path d="M124.873 106.421C125.273 107.528 124.924 108.28 123.827 108.676L119.125 110.376C118.028 110.773 117.279 110.418 116.879 109.311L112.911 98.3343C112.51 97.2273 112.859 96.4755 113.956 96.0789L118.658 94.3789C119.755 93.9822 120.504 94.3374 120.904 95.4443L122.764 100.587L122.352 101.517L116.915 103.483L118.785 108.655L122.988 107.136L122.042 104.52L123.938 103.835L124.873 106.421ZM120.555 100.406L118.998 96.1003L114.796 97.6196L116.352 101.925L120.555 100.406Z" fill="white"/>
<path d="M140.437 97.8775C141.059 98.8764 140.876 99.6844 139.886 100.302L135.643 102.947C134.653 103.564 133.847 103.374 133.224 102.375L127.048 92.4706C126.426 91.4717 126.609 90.6637 127.599 90.0464L131.842 87.4009C132.832 86.7836 133.638 86.9744 134.261 87.9732L137.155 92.6138L136.946 93.609L132.041 96.6678L134.951 101.335L138.743 98.9705L137.271 96.6105L138.982 95.544L140.437 97.8775ZM134.956 92.898L132.534 89.0132L128.742 91.3776L131.164 95.2624L134.956 92.898Z" fill="white"/>
<path d="M165.427 74.5205L164.174 76.1776L153.533 68.1259L150.898 71.8147L161.439 79.791L160.195 81.4357L149.554 73.384L146.92 77.0728L157.461 85.0491L156.207 86.7062L144.083 77.5326L145.337 75.8754L145.674 76.13C146.081 75.4192 146.484 74.7053 146.883 73.9882C147.38 73.1237 147.824 72.4339 148.213 71.9189C148.597 71.4122 149.033 71.1547 149.523 71.1463C149.96 70.3795 150.389 69.6136 150.811 68.8487C151.38 67.8553 151.84 67.126 152.192 66.6608C152.884 65.7471 153.682 65.6328 154.587 66.3179L165.427 74.5205Z" fill="white"/>
<path d="M171.821 56.7615C172.911 57.2064 173.233 57.9737 172.788 59.0635L170.816 63.8951C170.375 64.9753 169.61 65.2929 168.52 64.848L157.714 60.4366C156.624 59.9917 156.3 59.2292 156.74 58.1491L158.713 53.3174C159.158 52.2277 159.925 51.9052 161.015 52.3501L171.821 56.7615ZM170.978 58.6619L160.287 54.2977L158.557 58.5363L169.247 62.9004L170.978 58.6619Z" fill="white"/>
<path d="M167.698 37.7994L167.338 39.8143L164.246 39.2614L163.695 43.0518L176.708 45.3787L176.342 47.4244L161.376 44.7481L161.742 42.7024L162.157 42.7767C162.176 42.0816 162.19 41.3805 162.2 40.6733C162.224 39.8309 162.284 39.138 162.381 38.5946C162.583 37.4666 163.243 37.0026 164.36 37.2025L167.698 37.7994Z" fill="white"/>
<path d="M176.442 22.0096C177.619 21.9772 178.223 22.5442 178.255 23.7104L178.392 28.7085C178.424 29.8747 177.852 30.474 176.675 30.5064L165.008 30.827C163.831 30.8593 163.227 30.2923 163.195 29.1261L163.058 24.128C163.026 22.9618 163.598 22.3625 164.775 22.3302L170.241 22.1799L170.995 22.8626L171.153 28.6417L176.651 28.4906L176.529 24.0236L173.748 24.1L173.693 22.0851L176.442 22.0096ZM169.375 24.2201L164.799 24.3459L164.921 28.8129L169.498 28.6872L169.375 24.2201Z" fill="white"/>
</svg>
