<svg width="75" height="64" viewBox="0 0 75 64" fill="none" xmlns="http://www.w3.org/2000/svg">
<circle cx="37.401" cy="11.3046" r="10.8046" stroke="white"/>
<path d="M13.7537 51.1593C13.5193 51.6127 13.1845 51.9087 12.7494 52.0472C12.3235 52.1906 11.8838 52.145 11.4304 51.9106L5.96181 49.0833C5.50841 48.8489 5.20781 48.5117 5.06001 48.0718C4.92146 47.6366 4.9694 47.1923 5.20381 46.7389L8.05267 41.2287L9.98195 42.2261L7.21921 47.5698L11.9105 49.9953L14.5872 44.8182L12.337 34.473C12.1789 33.758 12.2554 33.0998 12.5664 32.4984L14.8411 28.0985C15.0755 27.6451 15.4103 27.3491 15.8455 27.2106C16.2899 27.0768 16.7388 27.1271 17.1922 27.3615L22.6608 30.1889C23.1142 30.4233 23.4055 30.7557 23.5348 31.186C23.6734 31.6212 23.6254 32.0655 23.391 32.5189L20.779 37.5711L18.8497 36.5736L21.3756 31.688L16.6843 29.2625L14.3162 33.8428L16.5942 44.2024C16.7433 44.8892 16.6624 45.5334 16.3514 46.1349L13.7537 51.1593Z" fill="white"/>
<path d="M32.0577 57.4553L30.003 57.1443L31.9999 43.9508L27.4547 43.3893L25.4764 56.4592L23.4217 56.1482L27.0812 31.9704L29.1359 32.2814L27.6885 41.8444C28.5177 41.8645 29.347 41.8847 30.1762 41.9049C31.2264 41.9269 32.045 41.9823 32.6321 42.0711C33.7753 42.2442 34.262 42.892 34.0921 44.0146L32.0577 57.4553Z" fill="white"/>
<path d="M51.3856 54.2938C51.5823 55.4543 51.1004 56.1329 49.9399 56.3296L44.7945 57.2017C43.6442 57.3966 42.9707 56.9138 42.774 55.7533L40.8236 44.2455C40.6269 43.085 41.1037 42.4073 42.254 42.2123L47.3994 41.3402C48.5599 41.1435 49.2385 41.6255 49.4352 42.786L51.3856 54.2938ZM49.3263 54.5794L47.3967 43.1949L42.883 43.9599L44.8125 55.3444L49.3263 54.5794Z" fill="white"/>
<path d="M68.3494 45.6602C68.7873 46.4891 68.8805 47.3235 68.629 48.1632C68.3727 48.9936 67.8346 49.6254 67.0149 50.0584L63.9892 51.6568L66.6823 56.7548L64.8448 57.7255L55.0505 39.1847L56.888 38.214L57.085 38.5871C57.764 38.1106 58.443 37.6341 59.1219 37.1576C59.9797 36.5513 60.6711 36.1095 61.1961 35.8322C62.2185 35.2921 62.9949 35.524 63.5252 36.528L68.3494 45.6602ZM66.3659 46.3546L61.8045 37.7197L57.8149 39.9686L63.1353 50.0403L65.6774 48.6974C66.6814 48.1671 66.9109 47.3861 66.3659 46.3546Z" fill="white"/>
</svg>
