<svg width="145" height="131" viewBox="0 0 145 131" fill="none" xmlns="http://www.w3.org/2000/svg">
<circle cx="72" cy="40" r="40" fill="white"/>
<path d="M30.529 83.6305L9.24771 96.5167L7.90497 94.9718L23.6308 75.6937L25.0453 77.3211L12.3394 92.3804C12.3394 92.3804 11.959 92.7525 11.198 93.4967C11.48 93.2654 11.9049 92.9444 12.4727 92.5337L29.1555 82.0502L30.529 83.6305Z" fill="white"/>
<path d="M32.2093 92.6508L30.558 91.3383L32.1913 89.2833L33.8426 90.5958L32.2093 92.6508ZM20.6545 107.138L19.0521 105.865L28.5117 93.9632L30.114 95.2367L20.6545 107.138Z" fill="white"/>
<path d="M36.704 115.107C36.1457 116.144 35.3485 116.383 34.3122 115.824L30.1167 113.564C29.0805 113.006 28.8415 112.208 29.3998 111.172L31.0376 108.132L32.8396 109.103L31.2166 112.116L34.9169 114.109L36.3546 111.44L33.6797 104.941C33.4188 104.327 33.4465 103.727 33.7627 103.14L34.9633 100.912C35.5216 99.8753 36.3188 99.6363 37.3551 100.195L41.4956 102.425C42.5318 102.984 42.7708 103.781 42.2125 104.817L40.7748 107.486L39.0003 106.53L40.4232 103.889L36.7229 101.895L35.4631 104.234L38.1792 110.755C38.4358 111.355 38.3987 111.962 38.0676 112.576L36.704 115.107Z" fill="white"/>
<path d="M52.802 103.382L50.7975 102.725L51.6152 100.231L53.6197 100.888L52.802 103.382ZM46.9997 120.982L45.0547 120.344L49.7905 105.897L51.7355 106.535L46.9997 120.982Z" fill="white"/>
<path d="M61.7731 124.27L58.857 123.805C57.7049 123.621 57.2217 122.947 57.4074 121.785L59.2385 110.321L57.4332 110.033L57.7216 108.227L59.5268 108.516L60.2736 103.841L62.2948 104.163L61.5481 108.839L64.1711 109.257L63.8827 111.063L61.2597 110.644L59.4385 122.046L62.0615 122.465L61.7731 124.27Z" fill="white"/>
<path d="M90.4003 121.317C90.484 121.82 90.393 122.258 90.1274 122.629C89.8721 122.999 89.4927 123.226 88.9892 123.309L82.9163 124.319C82.4128 124.403 81.9701 124.313 81.5883 124.049C81.2169 123.783 80.9893 123.399 80.9056 122.895L79.8884 116.776L82.0308 116.42L83.0173 122.354L88.227 121.488L87.2714 115.739L79.2753 108.8C78.7206 108.322 78.3878 107.749 78.2768 107.081L77.4645 102.195C77.3808 101.691 77.4718 101.254 77.7374 100.882C78.0133 100.509 78.4029 100.281 78.9065 100.197L84.9794 99.1873C85.4829 99.1036 85.9152 99.1955 86.2765 99.4628C86.648 99.7283 86.8756 100.113 86.9593 100.616L87.8919 106.227L85.7494 106.583L84.8475 101.158L79.6378 102.024L80.4833 107.11L88.5102 114.044C89.0409 114.505 89.3617 115.069 89.4728 115.737L90.4003 121.317Z" fill="white"/>
<path d="M108.831 116.746L106.917 117.554L101.731 105.259L97.5612 107.153L102.698 119.333L100.784 120.141L91.2805 97.6097L93.1952 96.802L96.954 105.714C97.6717 105.298 98.3895 104.882 99.1072 104.466C100.014 103.937 100.742 103.557 101.289 103.326C102.354 102.876 103.107 103.175 103.549 104.221L108.831 116.746Z" fill="white"/>
<path d="M124.073 105.115C124.764 106.068 124.633 106.89 123.68 107.581L119.454 110.643C118.51 111.328 117.692 111.194 117.001 110.241L110.151 100.791C109.46 99.8375 109.587 99.0187 110.532 98.3339L114.757 95.2711C115.71 94.5803 116.532 94.7114 117.223 95.6644L124.073 105.115ZM122.354 106.284L115.577 96.9347L111.87 99.6215L118.647 108.971L122.354 106.284Z" fill="white"/>
<path d="M136.194 90.7838C136.902 91.3988 137.29 92.1432 137.359 93.017C137.419 93.8841 137.146 94.6675 136.537 95.3672L134.293 97.9499L138.644 101.732L137.281 103.301L121.455 89.5452L122.818 87.9767L123.136 88.2535C123.597 87.564 124.059 86.8746 124.52 86.1851C125.101 85.3101 125.586 84.6485 125.976 84.2004C126.734 83.3277 127.542 83.2637 128.399 84.0086L136.194 90.7838ZM134.595 92.1473L127.224 85.7411L124.316 89.2785L132.913 96.7507L134.799 94.5807C135.544 93.7237 135.476 92.9126 134.595 92.1473Z" fill="white"/>
</svg>
