<svg width="36" height="36" viewBox="0 0 36 36" fill="none" xmlns="http://www.w3.org/2000/svg">
<rect opacity="0.1" width="36" height="36" rx="5" fill="white"/>
<path d="M28.2234 6H7.77187C6.79219 6 6 6.77344 6 7.72969V28.2656C6 29.2219 6.79219 30 7.77187 30H28.2234C29.2031 30 30 29.2219 30 28.2703V7.72969C30 6.77344 29.2031 6 28.2234 6ZM13.1203 26.4516H9.55781V14.9953H13.1203V26.4516ZM11.3391 13.4344C10.1953 13.4344 9.27188 12.5109 9.27188 11.3719C9.27188 10.2328 10.1953 9.30937 11.3391 9.30937C12.4781 9.30937 13.4016 10.2328 13.4016 11.3719C13.4016 12.5062 12.4781 13.4344 11.3391 13.4344ZM26.4516 26.4516H22.8937V20.8828C22.8937 19.5562 22.8703 17.8453 21.0422 17.8453C19.1906 17.8453 18.9094 19.2937 18.9094 20.7891V26.4516H15.3563V14.9953H18.7687V16.5609H18.8156C19.2891 15.6609 20.4516 14.7094 22.1813 14.7094C25.7859 14.7094 26.4516 17.0813 26.4516 20.1656V26.4516Z" fill="white"/>
</svg>
