<svg width="36" height="36" viewBox="0 0 36 36" fill="none" xmlns="http://www.w3.org/2000/svg">
<rect opacity="0.1" width="36" height="36" rx="5" fill="white"/>
<g clip-path="url(#clip0_346_274)">
<path d="M13.5502 27.75C22.6045 27.75 27.5583 20.2467 27.5583 13.7419C27.5583 13.5309 27.5536 13.3153 27.5442 13.1044C28.5079 12.4075 29.3395 11.5443 30 10.5553C29.1025 10.9546 28.1496 11.2154 27.1739 11.3287C28.2013 10.7129 28.9705 9.74547 29.3391 8.60577C28.3726 9.17856 27.3156 9.58261 26.2134 9.80061C25.4708 9.01156 24.489 8.48912 23.4197 8.31405C22.3504 8.13899 21.2532 8.32105 20.2977 8.8321C19.3423 9.34314 18.5818 10.1547 18.1338 11.1413C17.6859 12.1279 17.5754 13.2346 17.8195 14.2903C15.8625 14.1921 13.9479 13.6837 12.2 12.7981C10.452 11.9125 8.90969 10.6694 7.67297 9.14952C7.0444 10.2332 6.85206 11.5156 7.13503 12.7361C7.418 13.9565 8.15506 15.0234 9.19641 15.72C8.41463 15.6952 7.64998 15.4847 6.96563 15.1059V15.1669C6.96492 16.3041 7.3581 17.4066 8.07831 18.2868C8.79852 19.167 9.80132 19.7706 10.9162 19.995C10.1921 20.1931 9.43198 20.222 8.69484 20.0794C9.00945 21.0574 9.62157 21.9129 10.4458 22.5263C11.27 23.1398 12.2651 23.4806 13.2923 23.5012C11.5484 24.8711 9.39417 25.6141 7.17656 25.6106C6.78329 25.61 6.3904 25.5859 6 25.5384C8.25286 26.9837 10.8735 27.7514 13.5502 27.75Z" fill="white"/>
</g>
<defs>
<clipPath id="clip0_346_274">
<rect width="24" height="24" fill="white" transform="translate(6 6)"/>
</clipPath>
</defs>
</svg>
